<svg width="32" height="32" viewBox="0 0 32 32" fill="none" xmlns="http://www.w3.org/2000/svg">
<path d="M12.2501 16.0002C12.2501 16.8302 11.5801 17.5002 10.7501 17.5002C9.92006 17.5002 9.25006 16.8302 9.25006 16.0002C9.25006 15.1702 9.92006 14.5002 10.7501 14.5002C11.5801 14.5002 12.2501 15.1702 12.2501 16.0002ZM17.9301 21.0002H26.0001C26.9401 21.0002 27.8401 20.5502 28.4001 19.8002L29.9001 17.8002C30.6901 16.7402 30.6901 15.2602 29.9001 14.2002L28.4001 12.2002C27.8401 11.4502 26.9401 11.0002 26.0101 11.0002L17.9301 10.9802C16.0001 8.2302 12.6801 6.8102 9.30006 7.3702C5.48006 7.9902 2.50006 11.1302 2.07006 14.9902C1.79006 17.4802 2.58006 19.9702 4.24006 21.8302C5.90006 23.6902 8.28006 24.7502 10.7601 24.7502C13.6601 24.7502 16.3001 23.3602 17.9401 21.0002H17.9301ZM16.5201 12.5002C16.7001 12.8002 17.0201 12.9802 17.3701 12.9802L25.9901 13.0002C26.3001 13.0002 26.6001 13.1502 26.7901 13.4002L28.2901 15.4002C28.5501 15.7502 28.5501 16.2502 28.2901 16.6002L26.7901 18.6002C26.6001 18.8502 26.3001 19.0002 25.9901 19.0002H17.3801C17.0301 19.0002 16.7101 19.1802 16.5201 19.4802C15.2801 21.5302 13.1201 22.7502 10.7401 22.7502C8.82006 22.7502 6.99006 21.9302 5.71006 20.5002C4.41006 19.0502 3.82006 17.1702 4.04006 15.2202C4.37006 12.2902 6.71006 9.82021 9.60006 9.35021C9.98006 9.29021 10.3501 9.26021 10.7201 9.26021C13.0801 9.26021 15.2701 10.4602 16.5101 12.5102L16.5201 12.5002Z" fill="#024588"/>
</svg>
