<svg width="32" height="32" viewBox="0 0 32 32" fill="none" xmlns="http://www.w3.org/2000/svg">
<path d="M28.4799 15.7502L24.7799 12.0502L18.2299 5.50018C14.7199 1.99018 9.00986 1.99018 5.49986 5.50018C3.79986 7.20018 2.85986 9.46018 2.85986 11.8702C2.85986 14.2802 3.79986 16.5402 5.49986 18.2402L11.8599 24.6002C12.0599 24.8002 12.3099 24.8902 12.5699 24.8902C12.8299 24.8902 13.0799 24.7902 13.2799 24.6002C13.6699 24.2102 13.6699 23.5802 13.2799 23.1902L6.91986 16.8302C5.59986 15.5102 4.86986 13.7502 4.86986 11.8802C4.86986 10.0102 5.59986 8.25018 6.91986 6.93018C9.64986 4.20018 14.0899 4.20018 16.8199 6.93018L21.0599 11.1702L27.0699 17.1802C27.7299 17.8402 28.0999 18.7202 28.0999 19.6602C28.0999 20.6002 27.7399 21.4702 27.0699 22.1402C25.7099 23.5102 23.4899 23.5102 22.1199 22.1402L13.8899 13.9102C13.4999 13.5202 12.8699 13.5202 12.4799 13.9102C12.0899 14.3002 12.0899 14.9302 12.4799 15.3202L20.7099 23.5502C21.7799 24.6202 23.1899 25.1602 24.5999 25.1602C26.0099 25.1602 27.4199 24.6202 28.4899 23.5502C30.6299 21.4002 30.6299 17.9202 28.4899 15.7702L28.4799 15.7502Z" fill="#024588"/>
</svg>
