<svg width="32" height="32" viewBox="0 0 32 32" fill="none" xmlns="http://www.w3.org/2000/svg">
<path d="M28.2795 7.94998C27.7595 5.64998 25.7095 3.97998 23.3895 3.97998H16.9595H8.57953C6.24953 3.97998 4.24953 5.60998 3.72953 7.94998C3.28953 9.90998 3.01953 12.61 3.01953 14.98C3.01953 17.6 3.35953 19.33 3.72953 21.01C4.24953 23.35 6.24953 24.98 8.58953 24.98H17.0095C17.0095 24.98 17.0195 24.98 17.0295 24.98H21.5095C21.7795 25.16 22.3595 25.81 22.8395 26.49L24.2595 28.19C24.7595 28.73 25.4295 29.02 26.1095 29.02C26.3195 29.02 26.5395 28.99 26.7495 28.93C27.6395 28.68 28.2895 27.95 28.4795 26.99C28.6095 26.33 28.9795 22.64 28.9795 16.63C28.9795 12.86 28.7595 10.1 28.2795 7.95998V7.94998ZM26.5195 26.59C26.4795 26.81 26.3595 26.96 26.1995 27C26.0395 27.05 25.8695 26.98 25.7495 26.86L24.4095 25.27C23.3495 23.75 22.4095 22.98 21.6195 22.98H8.49953V22.97C8.49953 22.97 8.48953 22.97 8.47953 22.97C7.12953 22.93 5.97953 21.95 5.66953 20.57C5.31953 19.01 4.99953 17.4 4.99953 14.98C4.99953 12.31 5.33953 9.81998 5.66953 8.38998C5.98953 6.96998 7.17953 5.97998 8.56953 5.97998H16.9095H16.9395H23.3595C24.7495 5.97998 25.9895 6.98998 26.2995 8.38998C26.7495 10.38 26.9595 13 26.9595 16.62C26.9595 22.87 26.5595 26.28 26.4995 26.58L26.5195 26.59ZM21.4995 14.5C21.4995 15.05 21.0495 15.5 20.4995 15.5H16.9995V19C16.9995 19.55 16.5495 20 15.9995 20C15.4495 20 14.9995 19.55 14.9995 19V15.5H11.4995C10.9495 15.5 10.4995 15.05 10.4995 14.5C10.4995 13.95 10.9495 13.5 11.4995 13.5H14.9995V9.99998C14.9995 9.44998 15.4495 8.99998 15.9995 8.99998C16.5495 8.99998 16.9995 9.44998 16.9995 9.99998V13.5H20.4995C21.0495 13.5 21.4995 13.95 21.4995 14.5Z" fill="#024588"/>
</svg>
