<svg width="32" height="32" viewBox="0 0 32 32" fill="none" xmlns="http://www.w3.org/2000/svg">
<path d="M13.0401 16C15.5201 16 17.5401 13.98 17.5401 11.5C17.5401 9.02001 15.5201 7.00001 13.0401 7.00001C10.5601 7.00001 8.54012 9.02001 8.54012 11.5C8.54012 13.98 10.5601 16 13.0401 16ZM13.0401 9.00001C14.4201 9.00001 15.5401 10.12 15.5401 11.5C15.5401 12.88 14.4201 14 13.0401 14C11.6601 14 10.5401 12.88 10.5401 11.5C10.5401 10.12 11.6601 9.00001 13.0401 9.00001ZM22.2501 23.12C21.7801 20.3 20.1301 18.59 17.4801 18.17C16.3101 17.98 15.7201 17.91 13.0701 17.91C13.0601 17.91 13.0501 17.91 13.0401 17.91C13.0301 17.91 13.0201 17.91 13.0101 17.91C10.3001 17.91 9.64012 18 8.53012 18.17C5.88012 18.59 4.24012 20.3 3.76012 23.11L3.53012 24.37C3.36012 25.33 3.58012 26.31 4.15012 27.13C4.78012 28.02 5.74012 28.61 6.87012 28.8C7.88012 28.97 9.07012 29 10.5001 29C10.8701 29 11.2601 29 11.6701 29H13.0101H14.3501C14.7601 29 15.1401 29 15.5201 29C16.9501 29 18.1401 28.97 19.1501 28.8C20.2701 28.61 21.2401 28.02 21.8701 27.13C22.4501 26.31 22.6701 25.33 22.4901 24.37L22.2701 23.12H22.2501ZM20.2201 25.98C19.9001 26.43 19.4001 26.73 18.8101 26.83C17.7001 27.02 16.2201 27.01 14.3501 27H13.0001H11.6501C9.78012 27.01 8.30012 27.02 7.19012 26.83C6.60012 26.73 6.10012 26.43 5.78012 25.98C5.52012 25.6 5.41012 25.16 5.49012 24.73L5.72012 23.46C6.05012 21.49 7.04012 20.44 8.83012 20.15C9.79012 20 10.3201 19.91 13.0001 19.91C13.0101 19.91 13.0201 19.91 13.0301 19.91C13.0401 19.91 13.0501 19.91 13.0601 19.91C15.6701 19.91 16.1301 19.98 17.1601 20.15C18.9501 20.44 19.9401 21.49 20.2701 23.47L20.5001 24.73C20.5801 25.16 20.4701 25.61 20.2101 25.98H20.2201ZM28.9901 8.00001C28.9901 8.55001 28.5401 9.00001 27.9901 9.00001H25.0001V11.99C25.0001 12.54 24.5501 12.99 24.0001 12.99C23.4501 12.99 23.0001 12.54 23.0001 11.99V9.00001H20.0101C19.4601 9.00001 19.0101 8.55001 19.0101 8.00001C19.0101 7.45001 19.4601 7.00001 20.0101 7.00001H23.0001V4.01001C23.0001 3.46001 23.4501 3.01001 24.0001 3.01001C24.5501 3.01001 25.0001 3.46001 25.0001 4.01001V7.00001H27.9901C28.5401 7.00001 28.9901 7.45001 28.9901 8.00001Z" fill="#024588"/>
</svg>
