<svg width="32" height="32" viewBox="0 0 32 32" fill="none" xmlns="http://www.w3.org/2000/svg">
<path d="M27.2602 7.78C26.7302 5.55 24.7402 4 22.4102 4H16.0002H9.59023C7.26023 4 5.27023 5.56 4.74023 7.78C4.25023 9.86 3.99023 12.63 3.99023 16C3.99023 19.37 4.24023 22.13 4.74023 24.22C5.27023 26.45 7.26023 28 9.59023 28H15.9902H22.3902C24.7202 28 26.7102 26.44 27.2402 24.22C27.7302 22.14 27.9902 19.38 27.9902 16C27.9902 12.62 27.7402 9.86 27.2402 7.78H27.2602ZM25.3102 23.75C25.0002 25.07 23.8002 26 22.4002 26H16.0002H9.60023C8.20023 26 7.01023 25.08 6.69023 23.75C6.23023 21.82 6.00023 19.21 6.00023 16C6.00023 12.79 6.23023 10.18 6.69023 8.25C7.00023 6.93 8.20023 6 9.60023 6H16.0102H22.4202C23.8202 6 25.0102 6.92 25.3302 8.25C25.7902 10.18 26.0202 12.79 26.0202 16C26.0202 19.21 25.7902 21.83 25.3302 23.75H25.3102ZM22.9902 16C22.9902 16.55 22.5402 17 21.9902 17H16.9902V22C16.9902 22.55 16.5402 23 15.9902 23C15.4402 23 14.9902 22.55 14.9902 22V17H9.99023C9.44023 17 8.99023 16.55 8.99023 16C8.99023 15.45 9.44023 15 9.99023 15H14.9902V10C14.9902 9.45 15.4402 9 15.9902 9C16.5402 9 16.9902 9.45 16.9902 10V15H21.9902C22.5402 15 22.9902 15.45 22.9902 16Z" fill="#024588"/>
</svg>
