<svg width="32" height="32" viewBox="0 0 32 32" fill="none" xmlns="http://www.w3.org/2000/svg">
<path d="M29.6801 21.87C28.8601 19.38 27.5501 16.61 25.5501 13.14C23.3601 9.35 21.6901 6.65 20.1301 4.9C19.0201 3.66 17.5901 3 16.0101 3C14.4301 3 13.0001 3.66 11.8901 4.9C10.3301 6.65 8.65014 9.35 6.47014 13.14C4.47014 16.61 3.15014 19.38 2.34014 21.87C1.51014 24.41 2.31014 26.69 4.47014 28.04C4.54014 28.1 4.60014 28.17 4.68014 28.21C5.72014 28.73 6.89014 29.01 8.06014 29.01H23.9801C25.1501 29.01 26.3201 28.73 27.3601 28.21C27.4401 28.17 27.5101 28.1 27.5701 28.04C29.7301 26.69 30.5301 24.41 29.7001 21.87H29.6801ZM26.4701 26.36C26.4701 26.36 26.4301 26.36 26.4201 26.37C25.6601 26.75 24.8101 26.95 23.9601 26.95H8.04014C7.19014 26.95 6.34014 26.75 5.58014 26.37C5.56014 26.37 5.54014 26.37 5.53014 26.36C4.15014 25.51 3.68014 24.15 4.22014 22.49C4.99014 20.13 6.25014 17.48 8.19014 14.13C10.3101 10.45 11.9201 7.84 13.3701 6.22C14.1001 5.4 14.9901 4.99 16.0001 4.99C17.0101 4.99 17.9001 5.4 18.6301 6.22C20.0801 7.84 21.6901 10.45 23.8101 14.13C25.7401 17.48 27.0001 20.13 27.7801 22.49C28.3201 24.14 27.8501 25.51 26.4701 26.36ZM15.0001 17.49V11.49C15.0001 10.94 15.4501 10.49 16.0001 10.49C16.5501 10.49 17.0001 10.94 17.0001 11.49V17.49C17.0001 18.04 16.5501 18.49 16.0001 18.49C15.4501 18.49 15.0001 18.04 15.0001 17.49ZM17.2501 21.74C17.2501 22.43 16.6901 22.99 16.0001 22.99C15.3101 22.99 14.7501 22.43 14.7501 21.74C14.7501 21.05 15.3101 20.49 16.0001 20.49C16.6901 20.49 17.2501 21.05 17.2501 21.74Z" fill="#024588"/>
</svg>
