<svg width="32" height="32" viewBox="0 0 32 32" fill="none" xmlns="http://www.w3.org/2000/svg">
<path d="M16 2C8.28 2 2 8.28 2 16C2 23.72 8.28 30 16 30C23.72 30 30 23.72 30 16C30 8.28 23.72 2 16 2ZM16 28C9.38 28 4 22.62 4 16C4 9.38 9.38 4 16 4C22.62 4 28 9.38 28 16C28 22.62 22.62 28 16 28ZM23.5 16C23.5 16.55 23.05 17 22.5 17H17V22.5C17 23.05 16.55 23.5 16 23.5C15.45 23.5 15 23.05 15 22.5V17H9.5C8.95 17 8.5 16.55 8.5 16C8.5 15.45 8.95 15 9.5 15H15V9.5C15 8.95 15.45 8.5 16 8.5C16.55 8.5 17 8.95 17 9.5V15H22.5C23.05 15 23.5 15.45 23.5 16Z" fill="#024588"/>
</svg>
