<svg width="32" height="32" viewBox="0 0 32 32" fill="none" xmlns="http://www.w3.org/2000/svg">
<path d="M28.48 12.33C28 9.83 25.7 8.02 23.02 8.02H16.66L16.03 6.56C15.55 5.6 14.58 5 13.51 5H8.99C6.3 5 4 6.92 3.53 9.57C3.2 11.38 3 15.06 3 16.91C3 18.66 3.17 20.46 3.53 22.43C4.01 25.08 6.31 27 8.99 27H16H23.01C25.69 27 27.99 25.19 28.47 22.69C28.83 20.84 29 19.15 29 17.51C29 15.87 28.83 14.18 28.47 12.33H28.48ZM26.52 22.31C26.22 23.87 24.75 25 23.02 25H16.01H9C7.28 25 5.81 23.77 5.5 22.07C5.17 20.22 5 18.53 5 16.91C5 14.95 5.22 11.47 5.5 9.93C5.8 8.23 7.28 7 9 7H13.52C13.83 7 14.11 7.17 14.23 7.4L15.09 9.4C15.09 9.4 15.13 9.45 15.14 9.48C15.19 9.57 15.24 9.65 15.31 9.72C15.36 9.77 15.41 9.79 15.47 9.83C15.52 9.87 15.57 9.91 15.63 9.93C15.71 9.96 15.8 9.97 15.89 9.98C15.93 9.98 15.96 10 16 10H23.01C24.74 10 26.21 11.13 26.51 12.69C26.84 14.41 27 15.98 27 17.49C27 19 26.84 20.57 26.51 22.29L26.52 22.31ZM20.99 17C20.99 17.55 20.54 18 19.99 18H17V20.99C17 21.54 16.55 21.99 16 21.99C15.45 21.99 15 21.54 15 20.99V18H12.01C11.46 18 11.01 17.55 11.01 17C11.01 16.45 11.46 16 12.01 16H15V13.01C15 12.46 15.45 12.01 16 12.01C16.55 12.01 17 12.46 17 13.01V16H19.99C20.54 16 20.99 16.45 20.99 17Z" fill="#024588"/>
</svg>
