<svg width="32" height="32" viewBox="0 0 32 32" fill="none" xmlns="http://www.w3.org/2000/svg">
<path d="M16.4104 10C18.6204 10 20.4104 8.21 20.4104 6C20.4104 3.79 18.6204 2 16.4104 2C14.2004 2 12.4104 3.79 12.4104 6C12.4104 8.21 14.2004 10 16.4104 10ZM16.4104 4C17.5104 4 18.4104 4.9 18.4104 6C18.4104 7.1 17.5104 8 16.4104 8C15.3104 8 14.4104 7.1 14.4104 6C14.4104 4.9 15.3104 4 16.4104 4ZM10.9104 13.48C11.4904 12.54 12.3704 11.92 13.4704 11.71C14.2104 11.57 14.6404 11.5 16.4104 11.5C18.1804 11.5 18.6204 11.57 19.3504 11.71C20.4304 11.92 21.8404 12.61 22.4504 14.72C22.6004 15.25 22.3004 15.8 21.7704 15.96C21.6804 15.99 21.5804 16 21.4904 16C21.0604 16 20.6604 15.71 20.5304 15.28C20.1804 14.06 19.5104 13.78 18.9804 13.68C18.3804 13.56 18.0704 13.51 16.4104 13.51C14.7504 13.51 14.4504 13.57 13.8504 13.68C13.2904 13.79 12.9004 14.06 12.6104 14.53C12.4204 14.84 12.0904 15.01 11.7504 15.01C11.5704 15.01 11.3904 14.96 11.2304 14.86C10.7604 14.57 10.6104 13.96 10.9004 13.48H10.9104ZM28.0804 16.15C27.1404 15.69 25.5604 15.5 23.3804 17.21C22.4704 17.92 20.4304 19.07 19.3104 19.69C18.9604 18.96 18.3104 18.33 17.2804 18.04C17.1204 17.99 13.3604 16.87 10.1704 16.25C8.67041 15.96 7.56041 16.49 6.22041 17.14L4.12041 18.33C2.93041 18.95 2.14041 20.12 2.00041 21.45C1.96041 21.86 2.05041 22.27 2.28041 22.66C5.18041 27.48 5.48041 27.42 6.20041 27.27C6.46041 27.22 6.72041 27.22 6.99041 27.29C7.67041 27.46 8.53041 27.78 9.53041 28.16C11.7104 28.98 14.4304 30 16.9904 30C20.5604 30 29.9904 20.92 29.9904 19.08C29.9904 18.11 29.3204 16.75 28.0804 16.15ZM16.9904 28C14.7904 28 12.2604 27.05 10.2304 26.29C9.1704 25.89 8.26041 25.55 7.47041 25.35C7.16041 25.27 6.85041 25.23 6.54041 25.23C6.47041 25.23 6.40041 25.23 6.33041 25.23C5.94041 24.73 5.13041 23.52 3.99041 21.65C4.06041 20.98 4.46041 20.4 5.08041 20.07L7.16041 18.89C8.37041 18.3 8.99041 18.03 9.80041 18.19C12.8904 18.8 16.6804 19.93 16.7304 19.94C17.7204 20.22 17.6604 21.05 17.6104 21.3C17.5604 21.57 17.3904 21.97 17.1004 21.98L11.1704 20.99C10.6204 20.89 10.1104 21.27 10.0204 21.81C9.93041 22.35 10.3004 22.87 10.8404 22.96L16.8404 23.96H16.9504C18.1804 24.05 19.2404 23.15 19.5504 21.82C20.0904 21.53 23.3004 19.8 24.6204 18.76C25.6904 17.93 26.6104 17.63 27.2104 17.92C27.6704 18.15 27.9204 18.67 27.9804 18.93C27.0504 20.59 19.4304 27.97 17.0004 27.97L16.9904 28Z" fill="#024588"/>
</svg>
