<svg width="32" height="32" viewBox="0 0 32 32" fill="none" xmlns="http://www.w3.org/2000/svg">
<path d="M14 16C14 14.9 14.9 14 16 14C17.1 14 18 14.9 18 16C18 17.1 17.1 18 16 18C14.9 18 14 17.1 14 16ZM25 18C26.1 18 27 17.1 27 16C27 14.9 26.1 14 25 14C23.9 14 23 14.9 23 16C23 17.1 23.9 18 25 18ZM7 18C8.1 18 9 17.1 9 16C9 14.9 8.1 14 7 14C5.9 14 5 14.9 5 16C5 17.1 5.9 18 7 18ZM16 9.5C17.1 9.5 18 8.6 18 7.5C18 6.4 17.1 5.5 16 5.5C14.9 5.5 14 6.4 14 7.5C14 8.6 14.9 9.5 16 9.5ZM25 9.5C26.1 9.5 27 8.6 27 7.5C27 6.4 26.1 5.5 25 5.5C23.9 5.5 23 6.4 23 7.5C23 8.6 23.9 9.5 25 9.5ZM7 9.5C8.1 9.5 9 8.6 9 7.5C9 6.4 8.1 5.5 7 5.5C5.9 5.5 5 6.4 5 7.5C5 8.6 5.9 9.5 7 9.5ZM16 26.5C17.1 26.5 18 25.6 18 24.5C18 23.4 17.1 22.5 16 22.5C14.9 22.5 14 23.4 14 24.5C14 25.6 14.9 26.5 16 26.5ZM25 26.5C26.1 26.5 27 25.6 27 24.5C27 23.4 26.1 22.5 25 22.5C23.9 22.5 23 23.4 23 24.5C23 25.6 23.9 26.5 25 26.5ZM7 26.5C8.1 26.5 9 25.6 9 24.5C9 23.4 8.1 22.5 7 22.5C5.9 22.5 5 23.4 5 24.5C5 25.6 5.9 26.5 7 26.5Z" fill="#024588"/>
</svg>
