<svg width="32" height="32" viewBox="0 0 32 32" fill="none" xmlns="http://www.w3.org/2000/svg">
<path d="M27.62 10.45C27.54 9.49999 27.12 8.61999 26.44 7.94999L21.7 3.29999C20.94 2.46999 19.87 1.98999 18.74 1.98999H18.02C18.02 1.98999 18.02 1.98999 18.01 1.98999C18 1.98999 18.01 1.98999 18 1.98999H9.67002C7.29002 1.98999 5.25002 3.65999 4.77002 5.98999C4.27002 8.36999 4.02002 11.34 4.02002 15.99C4.02002 20.64 4.28002 23.61 4.77002 25.99C5.26002 28.32 7.29002 29.99 9.67002 29.99H22.36C24.74 29.99 26.78 28.32 27.26 25.99C27.76 23.61 28.01 20.64 28.01 15.99C28.01 14.55 27.78 12.16 27.63 10.44L27.62 10.45ZM20.29 4.73999L25.03 9.38999C25.21 9.56999 25.35 9.76999 25.45 9.99999H20C19.45 9.99999 19 9.54999 19 8.99999V4.02999C19.46 4.08999 19.89 4.30999 20.2 4.64999C20.23 4.67999 20.25 4.70999 20.28 4.72999L20.29 4.73999ZM25.29 25.59C25 26.98 23.76 27.99 22.35 27.99H16.01H9.67002C8.26002 27.99 7.02002 26.98 6.73002 25.59C6.24002 23.23 6.02002 20.28 6.02002 16C6.02002 11.72 6.24002 8.76999 6.73002 6.40999C7.02002 5.01999 8.26002 4.00999 9.67002 4.00999H17.01V8.99999C17.01 10.66 18.36 12 20.01 12H25.75C25.88 13.43 26 14.99 26 16C26 20.28 25.78 23.23 25.29 25.59ZM22.02 22C22.02 22.55 21.57 23 21.02 23H11.01C10.46 23 10.01 22.55 10.01 22C10.01 21.45 10.46 21 11.01 21H21.02C21.57 21 22.02 21.45 22.02 22ZM22.02 17C22.02 17.55 21.57 18 21.02 18H11.01C10.46 18 10.01 17.55 10.01 17C10.01 16.45 10.46 16 11.01 16H21.02C21.57 16 22.02 16.45 22.02 17Z" fill="#024588"/>
</svg>
