<svg width="32" height="32" viewBox="0 0 32 32" fill="none" xmlns="http://www.w3.org/2000/svg">
<path d="M9.99961 18.99C12.1996 18.99 13.9896 17.2 13.9896 15C13.9896 12.8 12.1996 11.01 9.99961 11.01C7.79961 11.01 6.00961 12.8 6.00961 15C6.00961 17.2 7.79961 18.99 9.99961 18.99ZM9.99961 13C11.0996 13 11.9896 13.89 11.9896 14.99C11.9896 16.09 11.0996 16.98 9.99961 16.98C8.89961 16.98 8.00961 16.09 8.00961 14.99C8.00961 13.89 8.89961 13 9.99961 13ZM16.7996 25C16.3596 21.98 14.6096 21.03 13.2196 20.78C12.4096 20.63 11.9396 20.56 9.99961 20.56C8.05961 20.56 7.57961 20.63 6.77961 20.78C5.38961 21.04 3.63961 21.98 3.19961 24.99L3.03961 26.02C2.75961 27.82 3.88961 29.5 5.60961 29.83C6.11961 29.93 6.70961 29.98 7.53961 30C7.75961 30 8.16961 30 8.60961 30C9.10961 30 9.63961 30 9.92961 30C9.94961 30 9.96961 29.99 9.98961 29.99C10.0096 29.99 10.0296 30 10.0496 30C10.3496 30 10.8696 30 11.3696 30C11.7996 30 12.2196 30 12.4396 30C13.2696 29.98 13.8696 29.93 14.3796 29.83C16.0996 29.5 17.2296 27.82 16.9496 26.02L16.7896 25H16.7996ZM14.0096 27.87C13.6196 27.95 13.1296 27.98 12.4196 28C11.9596 28 10.6196 28 10.0796 28C10.0796 28 10.0296 28.01 10.0096 28.01C9.98961 28.01 9.95961 28 9.93961 28C9.39961 28 8.05961 28 7.59961 28C6.88961 27.99 6.39961 27.95 6.00961 27.87C5.35961 27.74 4.91961 27.05 5.02961 26.33L5.18961 25.29C5.47961 23.28 6.44961 22.88 7.14961 22.75C7.82961 22.62 8.15961 22.56 10.0096 22.56C11.8596 22.56 12.2196 22.63 12.8696 22.75C13.5696 22.88 14.5396 23.29 14.8296 25.3L14.9896 26.33C15.0996 27.05 14.6596 27.75 14.0196 27.87H14.0096ZM30.2496 9.75C30.2496 5.48 26.7696 2 22.4996 2C18.2296 2 14.7496 5.48 14.7496 9.75C14.7496 11.36 15.2496 12.87 16.1596 14.17V17.98C16.1596 17.98 16.1796 18.07 16.1896 18.11C16.1896 18.16 16.1896 18.2 16.1896 18.25C16.1896 18.27 16.2096 18.29 16.2196 18.32C16.2396 18.36 16.2596 18.4 16.2796 18.44C16.3196 18.51 16.3596 18.57 16.4096 18.63C16.4396 18.66 16.4696 18.69 16.4996 18.72C16.5596 18.77 16.6296 18.82 16.6996 18.85C16.7396 18.87 16.7696 18.89 16.7996 18.9C16.9096 18.94 17.0296 18.97 17.1596 18.97C17.2496 18.97 17.3396 18.96 17.4296 18.93L22.6596 17.47C26.8596 17.38 30.2396 13.95 30.2396 9.73L30.2496 9.75ZM22.4996 15.5C22.4996 15.5 22.4096 15.52 22.3696 15.53C22.3196 15.53 22.2796 15.53 22.2396 15.54L18.1696 16.67V13.88C18.1696 13.88 18.1496 13.8 18.1396 13.76C18.1396 13.69 18.1196 13.63 18.0996 13.56C18.0796 13.49 18.0396 13.44 18.0096 13.38C17.9896 13.34 17.9796 13.3 17.9596 13.27C17.1696 12.26 16.7596 11.04 16.7596 9.75C16.7596 6.58 19.3396 4 22.5096 4C25.6796 4 28.2596 6.58 28.2596 9.75C28.2596 12.92 25.6796 15.5 22.5096 15.5H22.4996ZM23.4996 10V13C23.4996 13.55 23.0496 14 22.4996 14C21.9496 14 21.4996 13.55 21.4996 13V10C21.4996 9.45 21.9496 9 22.4996 9C23.0496 9 23.4996 9.45 23.4996 10ZM23.7496 6.75C23.7496 7.44 23.1896 8 22.4996 8C21.8096 8 21.2496 7.44 21.2496 6.75C21.2496 6.06 21.8096 5.5 22.4996 5.5C23.1896 5.5 23.7496 6.06 23.7496 6.75Z" fill="#024588"/>
</svg>
