<svg width="32" height="32" viewBox="0 0 32 32" fill="none" xmlns="http://www.w3.org/2000/svg">
<path d="M28.99 14.0002C28.99 14.5502 28.54 15.0002 27.99 15.0002H25V17.9902C25 18.5402 24.55 18.9902 24 18.9902C23.45 18.9902 23 18.5402 23 17.9902V15.0002H20.01C19.46 15.0002 19.01 14.5502 19.01 14.0002C19.01 13.4502 19.46 13.0002 20.01 13.0002H23V10.0102C23 9.4602 23.45 9.0102 24 9.0102C24.55 9.0102 25 9.4602 25 10.0102V13.0002H27.99C28.54 13.0002 28.99 13.4502 28.99 14.0002ZM20.96 25.7202C21.12 26.2502 20.81 26.8002 20.28 26.9602C19.75 27.1202 19.2 26.8102 19.04 26.2802C18.58 24.7002 18.01 22.8802 17.38 20.9502C17.29 20.9802 17.19 21.0102 17.09 21.0102H6.55997C5.85997 23.2002 5.30997 25.0702 4.94997 26.2902C4.81997 26.7302 4.41997 27.0102 3.98997 27.0102C3.89997 27.0102 3.79997 27.0002 3.70997 26.9702C3.17997 26.8202 2.86997 26.2602 3.02997 25.7302C4.33997 21.2302 6.95997 12.7302 9.88997 6.3002C10.27 5.4702 11.05 4.9502 11.93 4.9502C11.93 4.9502 11.93 4.9502 11.94 4.9502C12.78 4.9502 13.53 5.4302 13.9 6.2102C16.54 11.8602 19.35 20.2502 20.95 25.7102L20.96 25.7202ZM16.73 19.0102C15.32 14.8602 13.68 10.4602 12.09 7.0702C12.05 6.9902 11.98 6.9502 11.94 6.9602C11.9 6.9602 11.78 6.9802 11.71 7.1402C10.05 10.7802 8.46997 15.1902 7.20997 19.0102H16.73Z" fill="#024588"/>
</svg>
