<svg width="32" height="32" viewBox="0 0 32 32" fill="none" xmlns="http://www.w3.org/2000/svg">
<path d="M29.9998 17V9.91997C29.9998 7.99997 28.4398 6.58997 27.1098 5.96997C24.7898 4.88997 22.4998 5.08997 22.4998 5.09997C19.7098 5.09997 17.1298 6.50997 15.9998 7.22997C14.8798 6.50997 12.3198 5.09997 9.60979 5.09997C9.51979 5.08997 7.21979 4.87997 4.89979 5.96997C3.56979 6.58997 2.00979 7.99997 2.00979 9.91997V17.01C1.98979 18.95 1.97979 21.37 2.25979 23.11C2.49979 24.64 3.82979 25.72 5.38979 25.63C5.88979 25.6 6.48979 25.5 7.17979 25.38C8.25979 25.2 9.48979 24.99 10.7198 24.99C12.0698 24.99 13.1298 25.31 14.0698 25.59C14.2798 25.65 14.4798 25.71 14.6798 25.77C15.1198 25.89 15.5698 25.95 16.0098 25.95C16.4498 25.95 16.9098 25.89 17.3498 25.77C17.5498 25.72 17.7498 25.65 17.9598 25.59C18.8998 25.31 19.9698 24.99 21.3098 24.99C22.5398 24.99 23.7698 25.2 24.8498 25.38C25.5398 25.5 26.1398 25.6 26.6398 25.63C28.2198 25.72 29.5298 24.63 29.7698 23.11C30.0498 21.36 30.0298 18.94 30.0198 17H29.9998ZM14.6198 23.68C13.5998 23.37 12.3298 22.99 10.6898 22.99C9.28979 22.99 7.91979 23.22 6.81979 23.41C6.18979 23.52 5.63979 23.61 5.24979 23.63C4.74979 23.66 4.28979 23.3 4.20979 22.79C3.95979 21.21 3.96979 18.88 3.97979 17.01V9.90997C3.97979 8.99997 4.87979 8.15997 5.71979 7.76997C7.52979 6.92997 9.36979 7.07997 9.48979 7.08997C11.8298 7.08997 14.0998 8.38997 14.9898 8.95997V23.78C14.8698 23.74 14.7498 23.71 14.6198 23.67V23.68ZM27.7698 22.79C27.6898 23.3 27.2398 23.67 26.7298 23.63C26.3398 23.61 25.7898 23.52 25.1598 23.41C24.0598 23.22 22.6898 22.99 21.2898 22.99C19.6498 22.99 18.3798 23.37 17.3598 23.68C17.2298 23.72 17.1098 23.75 16.9898 23.79V8.96997C17.8798 8.39997 20.1698 7.09997 22.5798 7.08997C22.5998 7.08997 24.4398 6.92997 26.2498 7.77997C27.0898 8.16997 27.9898 9.00997 27.9898 9.91997V17.02C28.0098 18.89 28.0198 21.22 27.7698 22.8V22.79Z" fill="#024588"/>
</svg>
