<svg width="32" height="32" viewBox="0 0 32 32" fill="none" xmlns="http://www.w3.org/2000/svg">
<path d="M12.45 24C11.9 24 11.45 23.55 11.45 23V13.05C11.45 12.5 11.9 12.05 12.45 12.05C13 12.05 13.45 12.5 13.45 13.05V23C13.45 23.55 13 24 12.45 24ZM20.54 23V13.05C20.54 12.5 20.09 12.05 19.54 12.05C18.99 12.05 18.54 12.5 18.54 13.05V23C18.54 23.55 18.99 24 19.54 24C20.09 24 20.54 23.55 20.54 23ZM30 8C30 8.55 29.55 9 29 9H26.92C26.92 10.24 26.9 12.11 26.83 14.21C26.69 17.89 26.26 21.63 25.54 25.32C24.83 29.19 22.61 30 20.87 30H11.15C9.41002 30 7.19002 29.19 6.48002 25.31C5.76002 21.63 5.33002 17.89 5.19002 14.21C5.11002 12.11 5.10002 10.24 5.10002 9H3.02002C2.47002 9 2.02002 8.55 2.02002 8C2.02002 7.45 2.47002 7 3.02002 7H10.21L10.49 5.28C10.8 3.26 12.01 2 13.64 2H18.4C20.03 2 21.24 3.26 21.55 5.29L21.83 7H29.02C29.57 7 30.02 7.45 30.02 8H30ZM12.21 7H19.78L19.55 5.6C19.47 5.11 19.21 4 18.37 4H13.61C12.77 4 12.51 5.12 12.43 5.6L12.2 7H12.21ZM24.91 9H7.08002C7.08002 10.22 7.10002 12.06 7.17002 14.13C7.30002 17.71 7.72002 21.34 8.43002 24.93C8.93002 27.65 10.14 27.99 11.14 27.99H20.86C21.86 27.99 23.07 27.64 23.57 24.94C24.27 21.34 24.7 17.7 24.83 14.13C24.91 12.06 24.92 10.22 24.92 9H24.91Z" fill="#024588"/>
</svg>
