<svg width="32" height="32" viewBox="0 0 32 32" fill="none" xmlns="http://www.w3.org/2000/svg">
<path d="M28.2602 9.78C27.7302 7.55 25.7302 6 23.4102 6H23.0102V4C23.0102 3.45 22.5602 3 22.0102 3C21.4602 3 21.0102 3.45 21.0102 4V6H17.4002H11.0002V4C11.0002 3.45 10.5502 3 10.0002 3C9.45023 3 9.00023 3.45 9.00023 4V6H8.59023C6.26023 6 4.27023 7.56 3.74023 9.78C3.24023 11.86 2.99023 14.63 2.99023 18C2.99023 21.37 3.24023 24.13 3.74023 26.22C4.27023 28.45 6.26023 30 8.59023 30H17.4002H23.4002C25.7302 30 27.7202 28.44 28.2502 26.22C28.7402 24.14 29.0002 21.37 29.0002 18C29.0002 14.63 28.7502 11.87 28.2502 9.78H28.2602ZM8.59023 8H9.00023V10C9.00023 10.55 9.45023 11 10.0002 11C10.5502 11 11.0002 10.55 11.0002 10V8H17.0002H17.4102H18.0102H21.0202V10C21.0202 10.55 21.4702 11 22.0202 11C22.5702 11 23.0202 10.55 23.0202 10V8H23.4202C24.8202 8 26.0102 8.92 26.3302 10.25C26.5202 11.05 26.6702 11.98 26.7802 13H5.32023C5.32023 13 5.26023 13.01 5.24023 13.02C5.35023 11.98 5.50023 11.05 5.69023 10.25C6.00023 8.93 7.20023 8 8.60023 8H8.59023ZM26.3102 25.75C26.0002 27.07 24.8002 28 23.4002 28H17.9902H17.4002H17.0002H8.59023C7.19023 28 6.00023 27.08 5.68023 25.75C5.22023 23.82 4.99023 21.21 4.99023 18C4.99023 16.91 5.02023 15.9 5.07023 14.95C5.15023 14.97 5.23023 15 5.31023 15H26.7802C26.7802 15 26.8702 14.98 26.9202 14.97C26.9702 15.91 27.0002 16.92 27.0002 18C27.0002 21.21 26.7702 23.82 26.3102 25.75ZM11.2502 19C11.2502 19.69 10.6902 20.25 10.0002 20.25C9.31023 20.25 8.75023 19.69 8.75023 19C8.75023 18.31 9.31023 17.75 10.0002 17.75C10.6902 17.75 11.2502 18.31 11.2502 19ZM17.2402 19C17.2402 19.69 16.6802 20.25 15.9902 20.25C15.3002 20.25 14.7402 19.69 14.7402 19C14.7402 18.31 15.3002 17.75 15.9902 17.75C16.6802 17.75 17.2402 18.31 17.2402 19ZM23.2502 19C23.2502 19.69 22.6902 20.25 22.0002 20.25C21.3102 20.25 20.7502 19.69 20.7502 19C20.7502 18.31 21.3102 17.75 22.0002 17.75C22.6902 17.75 23.2502 18.31 23.2502 19ZM11.2502 24C11.2502 24.69 10.6902 25.25 10.0002 25.25C9.31023 25.25 8.75023 24.69 8.75023 24C8.75023 23.31 9.31023 22.75 10.0002 22.75C10.6902 22.75 11.2502 23.31 11.2502 24ZM17.2402 24C17.2402 24.69 16.6802 25.25 15.9902 25.25C15.3002 25.25 14.7402 24.69 14.7402 24C14.7402 23.31 15.3002 22.75 15.9902 22.75C16.6802 22.75 17.2402 23.31 17.2402 24ZM23.2502 24C23.2502 24.69 22.6902 25.25 22.0002 25.25C21.3102 25.25 20.7502 24.69 20.7502 24C20.7502 23.31 21.3102 22.75 22.0002 22.75C22.6902 22.75 23.2502 23.31 23.2502 24Z" fill="#024588"/>
</svg>
