<svg width="32" height="32" viewBox="0 0 32 32" fill="none" xmlns="http://www.w3.org/2000/svg">
<path d="M29.4899 12.3298C28.9599 11.5398 28.0899 11.0498 27.1499 11.0098C27.1099 10.8198 27.0799 10.6398 27.0399 10.4498L26.9599 10.0698C26.4999 7.71977 24.4399 6.00977 22.0499 6.00977H15.6599L15.4699 5.56977C14.9899 4.60977 14.0199 4.00977 12.9499 4.00977H8.15992C5.46992 4.00977 3.16992 5.92977 2.69992 8.57977C2.36992 10.3898 2.16992 14.0698 2.16992 15.9198C2.16992 17.6698 2.33992 19.4698 2.69992 21.4398C3.17992 24.0898 5.47992 26.0098 8.15992 26.0098H22.2299C24.2999 26.0098 26.1799 24.7098 26.9099 22.7698L29.7799 15.1398C30.1599 14.2098 30.0499 13.1598 29.4899 12.3298ZM4.66992 21.0698C4.33992 19.2198 4.17992 17.5298 4.17992 15.9098C4.17992 14.1798 4.36992 10.5998 4.66992 8.92977C4.96992 7.22977 6.44992 5.99977 8.16992 5.99977H12.9599C13.2699 5.99977 13.5499 6.16977 13.6599 6.38977L14.0799 7.38977C14.2399 7.75977 14.5999 7.99977 14.9999 7.99977H22.0499C23.4799 7.99977 24.7299 9.02977 24.9999 10.4398L25.0799 10.8398C25.0899 10.8998 25.0999 10.9498 25.1099 11.0098H12.0999C10.4199 11.0098 8.90992 12.0698 8.34992 13.6298L5.09992 22.2498C4.88992 21.8998 4.74992 21.5098 4.66992 21.0898V21.0698ZM27.9199 14.3998L25.0399 22.0498C24.5999 23.2098 23.4799 23.9898 22.2299 23.9898H8.15992C7.63992 23.9898 7.13992 23.8798 6.68992 23.6698L10.2199 14.3098C10.5099 13.5198 11.2599 12.9898 12.0999 12.9898H26.9999C27.3399 12.9898 27.6399 13.1498 27.8299 13.4298C28.0199 13.7098 28.0499 14.0498 27.9199 14.3898V14.3998Z" fill="#024588"/>
</svg>
