<svg width="32" height="32" viewBox="0 0 32 32" fill="none" xmlns="http://www.w3.org/2000/svg">
<path d="M17.4098 16.0001L26.1998 7.21006C26.5898 6.82006 26.5898 6.19006 26.1998 5.80006C25.8098 5.41006 25.1798 5.41006 24.7898 5.80006L15.9998 14.5901L7.20982 5.79006C6.81982 5.40006 6.18982 5.40006 5.79982 5.79006C5.40982 6.18006 5.40982 6.81006 5.79982 7.20006L14.5898 15.9901L5.79982 24.7801C5.40982 25.1701 5.40982 25.8001 5.79982 26.1901C5.99982 26.3901 6.24982 26.4801 6.50982 26.4801C6.76982 26.4801 7.01982 26.3801 7.21982 26.1901L16.0098 17.4001L24.7998 26.1901C24.9998 26.3901 25.2498 26.4801 25.5098 26.4801C25.7698 26.4801 26.0198 26.3801 26.2198 26.1901C26.6098 25.8001 26.6098 25.1701 26.2198 24.7801L17.4298 15.9901L17.4098 16.0001Z" fill="#024588"/>
</svg>
