<svg width="32" height="32" viewBox="0 0 32 32" fill="none" xmlns="http://www.w3.org/2000/svg">
<path d="M24.1602 20.3C22.6802 20.3 21.3802 20.98 20.4902 22.02L12.4802 17.4C12.6102 16.97 12.7002 16.52 12.7002 16.04C12.7002 15.56 12.6002 15.08 12.4602 14.63L20.4902 9.99999C21.3802 11.04 22.6902 11.72 24.1602 11.72C26.8302 11.72 29.0102 9.53999 29.0102 6.86999C29.0102 4.19999 26.8302 2.01999 24.1602 2.01999C21.4902 2.01999 19.3102 4.19999 19.3102 6.86999C19.3102 7.34999 19.4002 7.80999 19.5302 8.23999L11.4902 12.88C10.6002 11.86 9.30023 11.19 7.84023 11.19C5.17023 11.19 2.99023 13.37 2.99023 16.04C2.99023 18.71 5.17023 20.89 7.84023 20.89C9.32023 20.89 10.6302 20.21 11.5202 19.16L19.5202 23.78C19.3902 24.22 19.3002 24.67 19.3002 25.15C19.3002 27.82 21.4802 30 24.1502 30C26.8202 30 29.0002 27.82 29.0002 25.15C29.0002 22.48 26.8202 20.3 24.1502 20.3H24.1602ZM24.1602 3.99999C25.7302 3.99999 27.0102 5.27999 27.0102 6.84999C27.0102 8.41999 25.7302 9.69999 24.1602 9.69999C22.5902 9.69999 21.3102 8.41999 21.3102 6.84999C21.3102 5.27999 22.5902 3.99999 24.1602 3.99999ZM7.85023 18.88C6.28023 18.88 5.00023 17.6 5.00023 16.03C5.00023 14.46 6.28023 13.18 7.85023 13.18C9.42023 13.18 10.7002 14.46 10.7002 16.03C10.7002 16.49 10.5802 16.92 10.3802 17.31C10.3802 17.31 10.3802 17.31 10.3702 17.32V17.34C9.89023 18.25 8.95023 18.87 7.86023 18.87L7.85023 18.88ZM24.1702 28C22.6002 28 21.3202 26.72 21.3202 25.15C21.3202 23.58 22.6002 22.3 24.1702 22.3C25.7402 22.3 27.0202 23.58 27.0202 25.15C27.0202 26.72 25.7402 28 24.1702 28Z" fill="#024588"/>
</svg>
