<svg width="32" height="32" viewBox="0 0 32 32" fill="none" xmlns="http://www.w3.org/2000/svg">
<path d="M11.9102 3H9.00023H6.09023C4.78023 3 3.65023 3.88 3.35023 5.14C3.12023 6.13 3.00023 7.43 3.00023 9C3.00023 10.57 3.12023 11.87 3.35023 12.86C3.65023 14.12 4.77023 15 6.09023 15H9.00023H11.9102C13.2202 15 14.3502 14.12 14.6502 12.86C14.8802 11.87 15.0002 10.57 15.0002 9C15.0002 7.43 14.8802 6.12 14.6502 5.14C14.3502 3.88 13.2302 3 11.9102 3ZM12.7002 12.4C12.6202 12.75 12.2802 13 11.9102 13H9.00023H6.09023C5.71023 13 5.38023 12.75 5.30023 12.4C5.10023 11.56 5.00023 10.42 5.00023 9C5.00023 7.58 5.10023 6.44 5.30023 5.6C5.38023 5.25 5.72023 5 6.09023 5H9.00023H11.9102C12.2902 5 12.6202 5.25 12.7002 5.6C12.9002 6.43 13.0002 7.58 13.0002 9C13.0002 10.42 12.9002 11.56 12.7002 12.4ZM8.99023 17C5.68023 17 2.99023 19.69 2.99023 23C2.99023 26.31 5.68023 29 8.99023 29C12.3002 29 14.9902 26.31 14.9902 23C14.9902 19.69 12.3002 17 8.99023 17ZM8.99023 27.01C6.78023 27.01 4.99023 25.21 4.99023 23.01C4.99023 20.81 6.79023 19.01 8.99023 19.01C11.1902 19.01 12.9902 20.81 12.9902 23.01C12.9902 25.21 11.1902 27.01 8.99023 27.01ZM17.8902 14.61C17.8902 14.61 17.9102 14.61 17.9202 14.62C17.9202 14.62 17.9302 14.62 17.9402 14.63C17.9802 14.65 18.0302 14.66 18.0702 14.68C18.1002 14.68 18.1202 14.7 18.1502 14.71C18.6102 14.91 19.1102 15.03 19.6102 15.03H26.2602C26.7602 15.03 27.2602 14.91 27.7202 14.71C27.7502 14.71 27.7702 14.69 27.8002 14.68C27.8402 14.66 27.8902 14.65 27.9302 14.63C27.9302 14.63 27.9402 14.63 27.9502 14.62C27.9602 14.62 27.9702 14.62 27.9802 14.61C29.1802 13.92 29.6502 12.65 29.2002 11.29C28.8802 10.33 25.8402 4.83 25.0802 3.99C24.5002 3.34 23.7602 3 22.9202 3C22.0902 3 21.3402 3.34 20.7602 3.99C20.1002 4.73 17.4902 9.65 16.7102 11.14C16.6802 11.19 16.6602 11.24 16.6502 11.29C16.2102 12.64 16.6702 13.91 17.8702 14.61H17.8902ZM18.5502 11.99C20.1102 9.03 21.9102 5.75 22.2802 5.33C22.4802 5.11 22.6902 5.01 22.9502 5.01C23.2102 5.01 23.4202 5.11 23.6202 5.33C24.1202 5.89 27.0602 11.13 27.3302 11.92C27.5102 12.47 27.2702 12.71 27.0302 12.86C26.8002 12.97 26.5402 13.03 26.2802 13.03H19.6302C19.3702 13.03 19.1202 12.97 18.8802 12.86C18.6502 12.72 18.4202 12.49 18.5602 11.99H18.5502ZM29.0102 23C29.0102 23.55 28.5602 24 28.0102 24H24.0102V28C24.0102 28.55 23.5602 29 23.0102 29C22.4602 29 22.0102 28.55 22.0102 28V24H18.0102C17.4602 24 17.0102 23.55 17.0102 23C17.0102 22.45 17.4602 22 18.0102 22H22.0102V18C22.0102 17.45 22.4602 17 23.0102 17C23.5602 17 24.0102 17.45 24.0102 18V22H28.0102C28.5602 22 29.0102 22.45 29.0102 23Z" fill="#024588"/>
</svg>
