<svg width="32" height="32" viewBox="0 0 32 32" fill="none" xmlns="http://www.w3.org/2000/svg">
<path d="M16 20.68C13.42 20.68 11.32 18.58 11.32 16C11.32 13.42 13.42 11.32 16 11.32C18.58 11.32 20.68 13.42 20.68 16C20.68 18.58 18.58 20.68 16 20.68ZM16 13.33C14.52 13.33 13.32 14.53 13.32 16.01C13.32 17.49 14.52 18.69 16 18.69C17.48 18.69 18.68 17.49 18.68 16.01C18.68 14.53 17.48 13.33 16 13.33ZM17.62 28.01H14.37C13.36 28.01 12.18 27.29 11.9 25.28L11.71 23.82L11.37 23.62L10.01 24.18C8.12003 24.94 6.91003 24.28 6.41003 23.41L4.79003 20.6C4.29003 19.73 4.32003 18.35 5.92003 17.1L7.09003 16.2V15.81L5.93003 14.92C4.33003 13.67 4.29003 12.29 4.80003 11.42L6.42003 8.61002C6.92003 7.74002 8.13003 7.07002 10.01 7.84002L11.37 8.40002L11.71 8.20002L11.9 6.75002C12.18 4.73002 13.36 4.02002 14.37 4.02002H17.62C18.63 4.02002 19.81 4.74002 20.09 6.75002L20.28 8.21002L20.62 8.41002L21.97 7.85002C23.86 7.09002 25.07 7.75002 25.57 8.62002L27.19 11.43C27.69 12.3 27.66 13.68 26.06 14.93L24.89 15.83V16.22L26.05 17.11C27.66 18.36 27.69 19.74 27.18 20.61L25.56 23.42C25.05 24.29 23.84 24.96 21.97 24.19L20.61 23.63L20.27 23.83L20.08 25.28C19.8 27.3 18.62 28.01 17.61 28.01H17.62ZM11.45 21.51C11.62 21.51 11.8 21.55 11.95 21.64L13.14 22.33C13.41 22.49 13.59 22.76 13.63 23.07L13.89 25.01C13.97 25.57 14.18 26.01 14.38 26.01H17.63C17.83 26.01 18.04 25.58 18.12 25.01L18.38 23.08C18.42 22.77 18.6 22.5 18.87 22.34L20.06 21.65C20.33 21.49 20.66 21.47 20.94 21.59L22.75 22.34C23.28 22.55 23.76 22.59 23.85 22.42L25.47 19.61C25.57 19.44 25.3 19.04 24.85 18.69L23.3 17.5C23.05 17.31 22.91 17.02 22.91 16.71V15.33C22.91 15.02 23.05 14.73 23.3 14.54L24.85 13.35C25.3 13 25.57 12.6 25.47 12.43L23.85 9.62002C23.75 9.45002 23.27 9.48002 22.74 9.70002L20.94 10.45C20.65 10.57 20.33 10.55 20.06 10.39L18.87 9.70002C18.6 9.54002 18.42 9.27002 18.38 8.96002L18.12 7.02002C18.04 6.46002 17.83 6.02002 17.63 6.02002H14.38C14.18 6.02002 13.97 6.45002 13.89 7.02002L13.64 8.95002C13.6 9.26002 13.42 9.53002 13.15 9.69002L11.96 10.38C11.69 10.54 11.36 10.56 11.08 10.44L9.27003 9.69002C8.74003 9.48002 8.26003 9.44002 8.16003 9.61002L6.54003 12.42C6.44003 12.59 6.71003 12.99 7.16003 13.34L8.71003 14.53C8.96003 14.72 9.10003 15.01 9.10003 15.32V16.7C9.10003 17.01 8.96003 17.3 8.71003 17.49L7.16003 18.68C6.71003 19.03 6.44003 19.43 6.54003 19.6L8.16003 22.41C8.26003 22.58 8.74003 22.55 9.27003 22.33L11.07 21.58C11.19 21.53 11.32 21.5 11.45 21.5V21.51Z" fill="#024588"/>
</svg>
