<svg width="32" height="32" viewBox="0 0 32 32" fill="none" xmlns="http://www.w3.org/2000/svg">
<path d="M27.37 5.24023C26.91 3.33023 25.22 1.99023 23.25 1.99023H13.75C11.78 1.99023 10.09 3.32023 9.62996 5.24023C9.16996 7.14023 8.99996 9.46023 8.99996 13.5002C8.99996 17.5402 9.17996 19.8502 9.62996 21.7602C10.09 23.6702 11.78 25.0102 13.75 25.0102C13.78 25.0102 13.81 25.0002 13.84 24.9902C13.87 24.9902 13.9 25.0102 13.93 25.0102H23.26C25.23 25.0102 26.92 23.6802 27.38 21.7602C27.84 19.8602 28.01 17.5502 28.01 13.5002C28.01 9.45023 27.83 7.14023 27.38 5.24023H27.37ZM25.42 21.2902C25.18 22.3002 24.29 23.0002 23.25 23.0002H13.92C13.92 23.0002 13.86 23.0102 13.83 23.0202C13.8 23.0202 13.77 23.0002 13.74 23.0002C12.7 23.0002 11.81 22.3002 11.57 21.2902C11.15 19.5502 10.99 17.3702 10.99 13.5002C10.99 9.63023 11.15 7.45023 11.57 5.71023C11.81 4.70023 12.7 4.00023 13.74 4.00023H23.24C24.28 4.00023 25.17 4.70023 25.41 5.71023C25.83 7.44023 25.99 9.63023 25.99 13.5002C25.99 17.3702 25.83 19.5602 25.41 21.2902H25.42ZM21.26 29.0002C21.26 29.5502 20.81 30.0002 20.26 30.0002H10.54C8.52996 30.0002 6.02996 28.2902 5.19996 26.3402C4.34996 24.3502 4.14996 22.3202 3.99996 18.5302C3.86996 14.4402 3.92996 12.4102 3.99996 10.4402C4.01996 9.89023 4.46996 9.44023 5.03996 9.47023C5.58996 9.49023 6.02996 9.95023 6.00996 10.5102C5.93996 12.5302 5.87996 14.4502 6.00996 18.4602C6.15996 22.4302 6.38996 24.0202 7.04996 25.5602C7.59996 26.8502 9.45996 28.0002 10.54 28.0002H20.26C20.81 28.0002 21.26 28.4502 21.26 29.0002Z" fill="#024588"/>
</svg>
