<svg width="32" height="32" viewBox="0 0 32 32" fill="none" xmlns="http://www.w3.org/2000/svg">
<path d="M22 6C19.03 6 17.05 7.84 16 9.19C14.95 7.85 12.97 6 10 6C5.75 6 3 9.03 3 13.71C3 21.04 12.42 26.69 13.49 27.3C14.26 27.75 15.13 27.97 16 27.97C16.87 27.97 17.74 27.75 18.51 27.3C19.58 26.68 29.01 21.04 29.01 13.71C29.01 9.02 26.26 6 22.01 6H22ZM17.51 25.58C16.56 26.13 15.43 26.12 14.49 25.58C10.96 23.55 5 18.76 5 13.72C5 12 5.49 8.01 10 8.01C13.3 8.01 15.07 11.39 15.11 11.46C15.28 11.8 15.62 12.01 16 12.01C16.38 12.01 16.72 11.8 16.89 11.46C16.91 11.42 18.68 8.01 22 8.01C26.52 8.01 27 12.01 27 13.72C27 18.76 21.03 23.55 17.51 25.58Z" fill="#024588"/>
</svg>
