<svg width="32" height="32" viewBox="0 0 32 32" fill="none" xmlns="http://www.w3.org/2000/svg">
<path d="M29.44 10.12C29.01 7.73 26.94 6 24.51 6H7.49C5.07 6 2.99 7.74 2.56 10.12C2.22 12 2 13.95 2 16C2 18.05 2.22 20 2.56 21.88C2.99 24.27 5.06 26 7.49 26H24.51C26.93 26 29.01 24.26 29.44 21.88C29.78 20 30 18.05 30 16C30 13.95 29.78 12 29.44 10.12ZM7.49 8H24.51C25.94 8 27.16 9.01 27.45 10.41L17.58 16.54C16.6 17.14 15.39 17.15 14.41 16.54L4.54 10.41C4.83 9.01 6.05 8 7.48 8H7.49ZM27.47 21.52C27.21 22.96 25.97 24 24.51 24H7.49C6.03 24 4.79 22.96 4.53 21.52C4.17 19.54 4 17.73 4 16C4 14.89 4.08 13.75 4.22 12.56L13.36 18.24C14.17 18.75 15.09 19 16 19C16.91 19 17.83 18.75 18.64 18.24L27.78 12.56C27.92 13.75 28 14.89 28 16C28 17.73 27.83 19.54 27.47 21.52Z" fill="#024588"/>
</svg>
