<svg width="32" height="32" viewBox="0 0 32 32" fill="none" xmlns="http://www.w3.org/2000/svg">
<path d="M26 8H6C5.45 8 5 7.55 5 7C5 6.45 5.45 6 6 6H26C26.55 6 27 6.45 27 7C27 7.55 26.55 8 26 8ZM27 13C27 12.45 26.55 12 26 12H6C5.45 12 5 12.45 5 13C5 13.55 5.45 14 6 14H26C26.55 14 27 13.55 27 13ZM27 19C27 18.45 26.55 18 26 18H6C5.45 18 5 18.45 5 19C5 19.55 5.45 20 6 20H26C26.55 20 27 19.55 27 19ZM27 25C27 24.45 26.55 24 26 24H6C5.45 24 5 24.45 5 25C5 25.55 5.45 26 6 26H26C26.55 26 27 25.55 27 25Z" fill="#024588"/>
</svg>
