<svg width="32" height="32" viewBox="0 0 32 32" fill="none" xmlns="http://www.w3.org/2000/svg">
<path d="M16 2C8.28 2 2 8.28 2 16C2 23.72 8.28 30 16 30C23.72 30 30 23.72 30 16C30 8.28 23.72 2 16 2ZM26.63 10.45L22.71 12.71C22.57 12.56 22.43 12.42 22.26 12.29L17.77 9.03C17.53 8.86 17.27 8.73 17.01 8.63V4.05C21.2 4.4 24.78 6.9 26.64 10.45H26.63ZM19.73 20.31C19.6 20.72 19.21 21 18.78 21H13.23C12.8 21 12.41 20.72 12.28 20.31L10.56 15.03C10.43 14.62 10.57 14.17 10.92 13.91L15.41 10.65C15.58 10.52 15.79 10.46 16 10.46C16.21 10.46 16.41 10.52 16.59 10.65L21.08 13.91C21.43 14.17 21.58 14.62 21.44 15.03L19.72 20.31H19.73ZM15 4.05V8.63C14.73 8.72 14.48 8.85 14.24 9.03L9.75 12.29C9.58 12.41 9.43 12.56 9.3 12.71L5.38 10.45C7.24 6.9 10.82 4.4 15.01 4.06L15 4.05ZM4 16C4 14.71 4.21 13.47 4.59 12.3L8.52 14.57C8.5 14.93 8.54 15.29 8.66 15.64L10.38 20.92C10.47 21.19 10.59 21.43 10.74 21.65L8.58 25.39C5.8 23.19 4.01 19.79 4.01 15.98L4 16ZM10.22 26.51C10.22 26.51 10.28 26.44 10.31 26.4L12.35 22.87C12.63 22.95 12.92 23 13.23 23H18.78C19.08 23 19.38 22.95 19.66 22.87L21.7 26.4C21.7 26.4 21.76 26.48 21.79 26.51C20.07 27.46 18.11 28 16.01 28C13.91 28 11.95 27.46 10.23 26.51H10.22ZM23.43 25.41L21.27 21.67C21.42 21.45 21.55 21.2 21.63 20.94L23.35 15.66C23.47 15.31 23.5 14.94 23.49 14.59L27.42 12.32C27.8 13.49 28.01 14.73 28.01 16.02C28.01 19.83 26.22 23.23 23.44 25.43L23.43 25.41Z" fill="#024588"/>
</svg>
