<svg width="32" height="32" viewBox="0 0 32 32" fill="none" xmlns="http://www.w3.org/2000/svg">
<path d="M9.28018 14.23C8.89018 13.84 8.88018 13.21 9.27018 12.82C9.66018 12.43 10.2902 12.42 10.6802 12.81L14.9602 17.01V4C14.9602 3.45 15.4102 3 15.9602 3C16.5102 3 16.9602 3.45 16.9602 4V17.06L21.2802 12.77C21.6702 12.38 22.3002 12.38 22.6902 12.77C23.0802 13.16 23.0802 13.79 22.6902 14.18L17.4602 19.38C17.0102 19.79 16.5002 19.99 15.9902 19.99H15.9702C15.4802 19.99 15.0002 19.79 14.5902 19.42L9.30018 14.23H9.28018ZM27.0902 18C26.5402 17.97 26.0702 18.39 26.0402 18.94C25.9402 20.8 25.7402 22.4 25.4402 23.68C25.1202 25.04 23.9202 26 22.5202 26H16.0002H9.51018C8.11018 26 6.92018 25.08 6.60018 23.75C6.29018 22.45 6.08018 20.83 5.98018 18.94C5.95018 18.39 5.46018 17.96 4.93018 18C4.38018 18.03 3.96018 18.5 3.98018 19.05C4.09018 21.06 4.31018 22.8 4.65018 24.21C5.18018 26.44 7.17018 27.99 9.50018 27.99H15.9902H22.5102C24.8502 27.99 26.8502 26.4 27.3802 24.13C27.7102 22.73 27.9202 21.02 28.0302 19.05C28.0602 18.5 27.6402 18.03 27.0902 18Z" fill="#024588"/>
</svg>
