<svg width="32" height="32" viewBox="0 0 32 32" fill="none" xmlns="http://www.w3.org/2000/svg">
<path d="M27.2604 14.3262L25.4604 5.54999C24.9804 3.48999 23.1204 1.98999 21.0304 1.98999H12.3804C10.5304 1.98999 8.09041 2.71999 6.95041 6.17999L6.90041 6.32999C6.52041 7.46999 5.53041 10.48 5.06041 14.25C5.06041 14.29 5.06041 14.32 5.06041 14.36C4.79041 15.94 5.30041 16.95 5.77041 17.51C6.60041 18.49 7.98041 18.99 9.87041 18.99H15.8004C15.7104 19.16 15.6304 19.33 15.5404 19.5C14.5704 21.4 13.6604 23.2 13.6404 26.27C13.6304 27.7 13.9104 28.65 14.5404 29.28C14.8604 29.6 15.4404 29.99 16.3704 29.99H16.6804C16.6804 29.99 16.7604 29.99 16.8004 29.99C18.8904 29.99 20.0104 29.33 20.6604 25.8C20.7704 25.22 21.6404 23.25 22.1204 22.72C25.4904 19.01 26.0204 17.95 27.1704 15.61L27.2604 15.43C27.3604 15.23 27.3904 15 27.3404 14.78L27.2604 14.3262ZM20.6604 21.38C19.8904 22.23 18.8804 24.54 18.7104 25.44C18.2404 28.01 17.9104 28.01 16.7204 27.99H16.3904C16.0904 27.99 16.0104 27.9 15.9804 27.87C15.8804 27.77 15.6504 27.42 15.6604 26.28C15.6804 23.68 16.4504 22.16 17.3404 20.4C17.6604 19.77 17.9904 19.12 18.3104 18.38C18.4404 18.07 18.4104 17.72 18.2304 17.44C18.0404 17.16 17.7304 16.99 17.4004 16.99H9.90041C8.64041 16.99 7.75041 16.72 7.33041 16.22C7.04041 15.87 6.95041 15.36 7.06041 14.7C7.07041 14.64 7.06041 14.59 7.06041 14.53C7.06041 14.52 7.07041 14.51 7.07041 14.49C7.51041 10.92 8.46041 8.02999 8.82041 6.94999L8.87041 6.79999C9.51041 4.85999 10.6004 3.98999 12.4004 3.98999H21.0504C22.2204 3.98999 23.2604 4.83999 23.5204 5.97999L25.3504 14.86C24.2904 17 23.7904 17.95 20.6704 21.39L20.6604 21.38Z" fill="#024588"/>
</svg>
