<svg width="32" height="32" viewBox="0 0 32 32" fill="none" xmlns="http://www.w3.org/2000/svg">
<path d="M28.99 14.0002C28.99 14.5502 28.54 15.0002 27.99 15.0002H21.02C20.47 15.0002 20.02 14.5502 20.02 14.0002C20.02 13.4502 20.47 13.0002 21.02 13.0002H27.99C28.54 13.0002 28.99 13.4502 28.99 14.0002ZM20.96 25.7202C21.12 26.2502 20.81 26.8002 20.28 26.9602C19.75 27.1202 19.2 26.8102 19.04 26.2802C18.58 24.7002 18.01 22.8802 17.38 20.9502C17.29 20.9802 17.19 21.0102 17.09 21.0102H6.55997C5.85997 23.2002 5.30997 25.0702 4.94997 26.2902C4.81997 26.7302 4.41997 27.0102 3.98997 27.0102C3.89997 27.0102 3.79997 27.0002 3.70997 26.9702C3.17997 26.8202 2.86997 26.2602 3.02997 25.7302C4.07997 22.1102 6.84997 12.9702 9.88997 6.3002C10.27 5.4702 11.05 4.9502 11.94 4.9502C11.94 4.9502 11.94 4.9502 11.95 4.9502C12.79 4.9502 13.54 5.4302 13.91 6.2102C16.55 11.8602 19.36 20.2502 20.96 25.7102V25.7202ZM16.73 19.0102C15.32 14.8602 13.68 10.4602 12.09 7.0702C12.05 6.9902 12.01 6.9602 11.94 6.9602C11.94 6.9602 11.78 6.9802 11.7 7.1402C10.04 10.7902 8.45997 15.2002 7.19997 19.0102H16.72H16.73Z" fill="#024588"/>
</svg>
