<svg width="32" height="32" viewBox="0 0 32 32" fill="none" xmlns="http://www.w3.org/2000/svg">
<path d="M8.9697 17.99C11.1697 17.99 12.9597 16.2 12.9597 14C12.9597 11.8 11.1697 10.01 8.9697 10.01C6.7697 10.01 4.97969 11.8 4.97969 14C4.97969 16.2 6.7697 17.99 8.9697 17.99ZM8.9697 12C10.0697 12 10.9597 12.89 10.9597 13.99C10.9597 15.09 10.0697 15.98 8.9697 15.98C7.8697 15.98 6.97969 15.09 6.97969 13.99C6.97969 12.89 7.8697 12 8.9697 12ZM29.9997 11.5C29.9997 13.84 29.7697 15.78 29.3197 17.24C28.8197 18.87 27.0097 20 24.9197 20H23.9997C23.4497 20 22.9997 19.55 22.9997 19C22.9997 18.45 23.4497 18 23.9997 18H24.9197C26.0997 18 27.1697 17.42 27.4097 16.65C27.7997 15.38 27.9997 13.65 27.9997 11.5C27.9997 9.35002 27.7997 7.62002 27.4097 6.35002C27.4097 6.34002 27.3997 6.33002 27.3897 6.32002C27.3497 6.21002 27.2897 6.10002 27.2197 5.99002C27.2197 5.99002 27.2097 5.97002 27.1997 5.96002C27.1297 5.86002 27.0497 5.77002 26.9497 5.69002C26.9397 5.68002 26.9297 5.67002 26.9097 5.66002C26.8097 5.57002 26.6997 5.50002 26.5697 5.42002C26.5697 5.42002 26.5497 5.41002 26.5497 5.40002C26.4197 5.33002 26.2797 5.26002 26.1297 5.21002C26.0997 5.20002 26.0597 5.19002 26.0297 5.18002C25.8897 5.13002 25.7497 5.10002 25.6097 5.07002C25.5597 5.07002 25.5197 5.05002 25.4697 5.04002C25.2897 5.01002 25.0997 4.99002 24.9197 4.99002H11.5397C11.3497 4.99002 11.1697 5.01002 10.9897 5.04002C10.9397 5.04002 10.8997 5.06002 10.8497 5.07002C10.6997 5.10002 10.5597 5.14002 10.4197 5.18002C10.3897 5.19002 10.3597 5.20002 10.3297 5.21002C10.1797 5.27002 10.0397 5.33002 9.90969 5.40002C9.90969 5.40002 9.8997 5.40002 9.8897 5.41002C9.7697 5.48002 9.64969 5.56002 9.5497 5.65002C9.53969 5.66002 9.5197 5.67002 9.5097 5.68002C9.4097 5.77002 9.3297 5.86002 9.2597 5.95002C9.2597 5.95002 9.24969 5.97002 9.23969 5.98002C9.16969 6.09002 9.10969 6.20002 9.06969 6.31002C9.06969 6.32002 9.0597 6.33002 9.0597 6.34002C8.9797 6.61002 8.89969 6.90002 8.83969 7.20002C8.7397 7.67002 8.32969 7.99002 7.85969 7.99002C7.78969 7.99002 7.7197 7.99002 7.64969 7.97002C7.10969 7.86002 6.7597 7.32002 6.87969 6.78002C6.95969 6.42002 7.0497 6.08002 7.14969 5.75002C7.14969 5.73002 7.16969 5.71002 7.16969 5.69002V5.67002C7.1797 5.63002 7.20969 5.60002 7.21969 5.57002C7.25969 5.47002 7.29969 5.37002 7.34969 5.27002C7.34969 5.25002 7.34969 5.22002 7.36969 5.20002C7.40969 5.12002 7.4697 5.05002 7.5097 4.98002C7.5297 4.95002 7.5497 4.92002 7.56969 4.88002C7.6197 4.80002 7.67969 4.72002 7.73969 4.65002C7.74969 4.64002 7.7597 4.62002 7.7797 4.61002C7.89969 4.46002 8.0397 4.32002 8.1797 4.20002C8.2097 4.18002 8.2397 4.15002 8.2597 4.13002C8.39969 4.02002 8.53969 3.91002 8.68969 3.81002C8.71969 3.79002 8.7497 3.77002 8.7697 3.75002C8.7997 3.73002 8.82969 3.72002 8.85969 3.70002C8.98969 3.62002 9.1297 3.55002 9.2697 3.49002C9.3197 3.47002 9.3697 3.44002 9.4297 3.42002C9.5097 3.39002 9.57969 3.35002 9.65969 3.33002C9.65969 3.33002 9.67969 3.33002 9.68969 3.33002C9.75969 3.30002 9.83969 3.29002 9.90969 3.26002C9.96969 3.24002 10.0297 3.22002 10.0897 3.20002C10.2097 3.17002 10.3397 3.14002 10.4697 3.12002C10.5297 3.11002 10.5897 3.10002 10.6597 3.09002C10.7097 3.09002 10.7497 3.07002 10.7997 3.07002C11.0397 3.04002 11.2797 3.02002 11.5297 3.02002H24.9297C25.1797 3.02002 25.4197 3.04002 25.6597 3.07002C25.7097 3.07002 25.7497 3.09002 25.7997 3.09002C25.8597 3.09002 25.9197 3.11002 25.9897 3.12002C26.1197 3.14002 26.2397 3.17002 26.3697 3.20002C26.4297 3.22002 26.4897 3.24002 26.5597 3.26002C26.6297 3.28002 26.6997 3.30002 26.7597 3.32002C26.7697 3.32002 26.7897 3.32002 26.7997 3.33002C26.7997 3.33002 26.7997 3.33002 26.8097 3.33002C26.8897 3.36002 26.9597 3.39002 27.0397 3.42002C27.0997 3.44002 27.1497 3.47002 27.1997 3.49002C27.3397 3.55002 27.4797 3.62002 27.6097 3.70002C27.6397 3.72002 27.6697 3.73002 27.6997 3.75002C27.7297 3.77002 27.7597 3.79002 27.7897 3.81002C27.9397 3.91002 28.0797 4.01002 28.2197 4.13002C28.2497 4.15002 28.2797 4.18002 28.3097 4.20002C28.4497 4.33002 28.5897 4.46002 28.7097 4.61002C28.7197 4.63002 28.7397 4.64002 28.7497 4.66002C28.8097 4.74002 28.8597 4.81002 28.9197 4.89002C28.9397 4.92002 28.9597 4.95002 28.9797 4.99002C29.0297 5.06002 29.0797 5.13002 29.1197 5.21002C29.1297 5.23002 29.1297 5.26002 29.1397 5.28002C29.1897 5.37002 29.2297 5.47002 29.2597 5.57002C29.2697 5.61002 29.2997 5.64002 29.3097 5.68002V5.70002C29.3097 5.72002 29.3297 5.74002 29.3297 5.75002C29.7797 7.21002 30.0097 9.15002 30.0097 11.49L29.9997 11.5ZM20.4097 17.58C21.0197 18.66 20.9997 19.89 20.3597 20.95C19.3097 22.67 17.5697 25.06 14.5097 26.61V27.99C14.5197 28.54 14.0797 28.99 13.5297 29C12.9797 29 12.5297 28.56 12.5297 28.01V26.01C12.5297 26.01 12.5297 25.93 12.5397 25.89C12.5497 25.8 12.5597 25.72 12.5897 25.64C12.6197 25.57 12.6597 25.52 12.6997 25.46C12.7297 25.41 12.7597 25.36 12.7997 25.32C12.8697 25.25 12.9497 25.2 13.0397 25.15C13.0697 25.13 13.0897 25.11 13.1097 25.1C16.0497 23.79 17.6897 21.52 18.6597 19.92C18.9297 19.48 18.9297 19.02 18.6797 18.58C18.5397 18.33 18.2897 18.16 18.0097 18.1C17.8397 18.07 17.5297 18.05 17.2297 18.3L16.9397 18.53C15.1897 19.95 13.2097 21.56 11.3697 21.56H10.0597C7.8597 21.56 7.41969 21.63 6.62969 21.75C5.20969 21.97 4.45969 22.76 4.19969 24.31C4.07969 24.95 4.01969 25.6 4.01969 26.23V28.01C4.00969 28.56 3.55969 29 3.00969 29C2.45969 29 2.00969 28.55 2.01969 27.99V26.21C2.02969 25.46 2.09969 24.7 2.23969 23.95C2.64969 21.57 4.05969 20.11 6.32969 19.76C7.25969 19.61 7.80969 19.54 10.0697 19.54H11.3797C12.5097 19.54 14.3497 18.05 15.6897 16.96L15.9797 16.72C16.6597 16.17 17.5397 15.95 18.3897 16.11C18.3997 16.11 18.4197 16.11 18.4297 16.12L22.2397 11.36C22.5897 10.93 23.2197 10.86 23.6497 11.2C24.0797 11.54 24.1497 12.17 23.8097 12.61L20.1597 17.18C20.2597 17.3 20.3597 17.43 20.4397 17.57L20.4097 17.58Z" fill="#024588"/>
</svg>
