<svg width="32" height="32" viewBox="0 0 32 32" fill="none" xmlns="http://www.w3.org/2000/svg">
<path d="M27.9102 19.0501C27.8002 21.0301 27.5902 22.7401 27.2602 24.1301C26.7302 26.4001 24.7302 27.9901 22.3902 27.9901H15.9902H9.59023C7.26023 27.9901 5.27023 26.4301 4.74023 24.2101C4.24023 22.1301 3.99023 19.3601 3.99023 15.9901C3.99023 12.6201 4.24023 9.86012 4.74023 7.77012C5.27023 5.54012 7.26023 3.99012 9.59023 3.99012H13.2402C13.7902 3.99012 14.2402 4.44012 14.2402 4.99012C14.2402 5.54012 13.7902 5.99012 13.2402 5.99012H9.59023C8.19023 5.99012 7.00023 6.91012 6.68023 8.24012C6.22023 10.1701 5.99023 12.7801 5.99023 15.9901C5.99023 19.2001 6.22023 21.8101 6.68023 23.7401C6.99023 25.0601 8.19023 25.9901 9.59023 25.9901H15.9902H22.3902C23.8002 25.9901 25.0002 25.0401 25.3202 23.6701C25.6202 22.3801 25.8202 20.7901 25.9202 18.9301C25.9502 18.3801 26.4202 17.9601 26.9702 17.9801C27.5202 18.0101 27.9402 18.4801 27.9202 19.0301L27.9102 19.0501ZM12.8602 13.4601L22.1202 4.24012C23.2902 3.08012 25.1902 3.08012 26.3502 4.24012L27.0402 4.93012L27.7302 5.62012C28.9002 6.79012 28.9002 8.69012 27.7302 9.85012L18.5802 19.0501C18.1602 19.4101 17.7302 19.6301 17.2802 19.7301L12.2102 20.9501C12.1302 20.9701 12.0602 20.9801 11.9802 20.9801C11.9102 20.9801 11.8302 20.9801 11.7502 20.9501C11.7402 20.9501 11.7302 20.9401 11.7102 20.9301C11.6102 20.9001 11.5302 20.8601 11.4402 20.8101C11.4202 20.8001 11.4002 20.7901 11.3802 20.7801C11.2802 20.7101 11.2002 20.6201 11.1402 20.5201C11.1202 20.4901 11.1202 20.4601 11.1002 20.4301C11.0702 20.3601 11.0302 20.3001 11.0102 20.2301C11.0102 20.2201 11.0102 20.2101 11.0102 20.1901C11.0002 20.1301 11.0102 20.0601 11.0102 19.9901C11.0102 19.9201 11.0102 19.8601 11.0102 19.7901C11.0102 19.7801 11.0102 19.7701 11.0102 19.7501L12.2302 14.6701C12.3402 14.2201 12.5602 13.7901 12.8502 13.4301L12.8602 13.4601ZM14.1702 15.1701L13.3302 18.6601L16.8202 17.8201C16.9702 17.7801 17.1202 17.7101 17.2402 17.6101L26.3302 8.47012C26.7202 8.08012 26.7202 7.44012 26.3302 7.05012L25.6402 6.36012L24.9502 5.67012C24.5602 5.28012 23.9302 5.28012 23.5302 5.67012L14.3302 14.8201C14.2902 14.8801 14.2102 15.0201 14.1802 15.1801L14.1702 15.1701Z" fill="#024588"/>
</svg>
