<svg width="32" height="32" viewBox="0 0 32 32" fill="none" xmlns="http://www.w3.org/2000/svg">
<path d="M14.91 17.44C14.52 17.05 14.52 16.42 14.91 16.03L24.44 6.50001H20.14C19.61 6.49001 19.19 6.06001 19.19 5.54001C19.19 5.02001 19.62 4.59001 20.14 4.59001H26.04C26.5 4.62001 26.9 4.79001 27.19 5.06001C27.21 5.08001 27.24 5.08001 27.25 5.10001C27.27 5.12001 27.28 5.15001 27.3 5.18001C27.55 5.46001 27.71 5.83001 27.73 6.25001L27.78 12.39C27.78 12.92 27.36 13.34 26.84 13.35C26.32 13.35 25.89 12.93 25.89 12.41L25.86 7.93001L16.34 17.45C16.15 17.65 15.89 17.74 15.63 17.74C15.37 17.74 15.12 17.64 14.92 17.45L14.91 17.44ZM26.97 18C26.43 17.97 25.95 18.39 25.92 18.95C25.82 20.81 25.62 22.4 25.32 23.69C25 25.05 23.8 26.01 22.4 26.01H9.6C8.2 26.01 7.01 25.09 6.69 23.76C6.23 21.83 6 19.22 6 16.01C6 12.8 6.23 10.19 6.69 8.26001C7 6.94001 8.2 6.01001 9.6 6.01001H13.25C13.8 6.01001 14.25 5.56001 14.25 5.01001C14.25 4.46001 13.8 4.01001 13.25 4.01001H9.6C7.27 4.01001 5.28 5.56001 4.75 7.79001C4.25 9.87001 4 12.64 4 16.01C4 19.38 4.25 22.14 4.75 24.23C5.28 26.46 7.27 28.01 9.6 28.01H22.4C24.74 28.01 26.74 26.42 27.27 24.15C27.6 22.75 27.82 21.04 27.92 19.07C27.95 18.52 27.53 18.05 26.97 18.02V18Z" fill="#024588"/>
</svg>
