<svg width="32" height="32" viewBox="0 0 32 32" fill="none" xmlns="http://www.w3.org/2000/svg">
<path d="M29.9998 9.09012C30.0198 8.88012 29.9598 8.69012 29.8598 8.52012C29.8598 8.51012 29.8498 8.50012 29.8398 8.49012C29.7998 8.42011 29.7498 8.35012 29.6898 8.29012C29.6598 8.26012 29.6498 8.22011 29.6098 8.19011C29.3798 7.99011 29.0798 7.93012 28.7998 7.98012C20.7998 7.26012 11.0898 7.19012 3.97979 7.80012C3.18979 7.87012 2.51979 8.34012 2.18979 9.06012C1.85979 9.78012 1.93979 10.6001 2.40979 11.2401L8.02979 17.4201L8.28979 25.7201V25.8301C8.40979 26.6201 8.91979 27.2601 9.65979 27.5501C9.91979 27.6501 10.1898 27.7001 10.4598 27.7001C10.9498 27.7001 11.4198 27.5301 11.8198 27.2101C17.3498 22.7101 24.2498 15.9201 29.4998 9.84012C29.7698 9.68012 29.9598 9.42012 29.9898 9.08012L29.9998 9.09012ZM10.5598 25.6701C10.5598 25.6701 10.4798 25.7301 10.3898 25.7001C10.3398 25.6801 10.2998 25.6401 10.2898 25.5901L10.0498 17.8001L15.2698 15.6101C15.7798 15.4001 16.0198 14.8101 15.7998 14.3001C15.5898 13.7901 14.9998 13.5501 14.4898 13.7701L9.35979 15.9301L4.01979 10.0601C4.01979 10.0601 3.98979 9.96011 4.01979 9.91012C4.05979 9.82012 4.12979 9.81012 4.15979 9.81012C10.6498 9.25012 19.3398 9.27012 26.8598 9.84012C21.8498 15.4901 15.6198 21.5601 10.5598 25.6801V25.6701Z" fill="#024588"/>
</svg>
