<svg width="32" height="32" viewBox="0 0 32 32" fill="none" xmlns="http://www.w3.org/2000/svg">
<path d="M14.9998 17V10C14.9998 9.45001 15.4498 9.00001 15.9998 9.00001C16.5498 9.00001 16.9998 9.45001 16.9998 10V17C16.9998 17.55 16.5498 18 15.9998 18C15.4498 18 14.9998 17.55 14.9998 17ZM15.9998 20C15.3098 20 14.7498 20.56 14.7498 21.25C14.7498 21.94 15.3098 22.5 15.9998 22.5C16.6898 22.5 17.2498 21.94 17.2498 21.25C17.2498 20.56 16.6898 20 15.9998 20ZM29.9998 16C29.9998 17.06 29.7298 18.15 29.2298 19.07C28.4198 20.59 26.1598 23.31 24.7298 24.68C23.3798 26.11 20.6098 28.4 19.0798 29.23C18.1598 29.72 17.0698 30 16.0098 30C14.9498 30 13.8598 29.73 12.9398 29.23C11.4198 28.41 8.69977 26.16 7.32977 24.73C5.89977 23.38 3.60977 20.61 2.77977 19.08C2.28977 18.16 2.00977 17.07 2.00977 16.01C2.00977 14.95 2.27977 13.86 2.77977 12.94C3.58977 11.42 5.84977 8.70001 7.27977 7.33001C8.62977 5.90001 11.3998 3.61001 12.9298 2.78001C13.8498 2.29001 14.9398 2.01001 15.9998 2.01001C17.0598 2.01001 18.1498 2.28001 19.0698 2.78001C20.5898 3.60001 23.3098 5.85001 24.6798 7.28001C26.1098 8.63001 28.3998 11.4 29.2298 12.93C29.7198 13.85 29.9998 14.94 29.9998 16ZM27.4698 18.13C27.7998 17.51 27.9998 16.73 27.9998 16C27.9998 15.27 27.8098 14.5 27.4698 13.87C26.8098 12.64 24.7498 10.09 23.3098 8.72001C23.3098 8.72001 23.3098 8.71001 23.2998 8.70001C23.2998 8.70001 23.2798 8.70001 23.2798 8.68001C21.9198 7.24001 19.3598 5.18001 18.1298 4.52001C17.5098 4.19001 16.7298 3.99001 15.9998 3.99001C15.2698 3.99001 14.4998 4.18001 13.8698 4.52001C12.6398 5.18001 10.0898 7.24001 8.71977 8.68001C8.71977 8.68001 8.71977 8.68001 8.70977 8.68001C8.70977 8.68001 8.69977 8.70001 8.68976 8.71001C7.24976 10.08 5.18977 12.63 4.52977 13.86C4.19977 14.49 3.99977 15.26 3.99977 15.99C3.99977 16.72 4.18977 17.49 4.52977 18.12C5.18977 19.35 7.24976 21.9 8.68976 23.27C8.68976 23.27 8.68976 23.28 8.69977 23.29C8.69977 23.29 8.71977 23.29 8.71977 23.31C10.0798 24.75 12.6398 26.81 13.8698 27.47C14.4898 27.8 15.2698 28 15.9998 28C16.7298 28 17.4998 27.81 18.1298 27.47C19.3598 26.81 21.9098 24.75 23.2798 23.31C23.2798 23.31 23.2898 23.31 23.2898 23.3C23.2898 23.3 23.2898 23.28 23.3098 23.28C24.7498 21.91 26.8098 19.36 27.4698 18.13Z" fill="#024588"/>
</svg>
