<svg width="32" height="32" viewBox="0 0 32 32" fill="none" xmlns="http://www.w3.org/2000/svg">
<path d="M25.1602 20.07C23.5402 26.47 20.2802 30 15.9902 30C12.0602 30 8.97023 27.14 7.25023 21.93C4.60023 21.51 2.99023 18.92 2.99023 16.5C2.99023 15.5 3.37023 14.55 4.04023 13.9C4.45023 13.51 4.95023 13.25 5.50023 13.11C5.63023 9.57 6.68023 6.77 8.65023 4.82C11.4902 2 15.1702 1.97 15.3102 2C17.3802 2 18.4902 2.26 20.0302 3.13C20.5102 3.4 20.6802 4.01 20.4102 4.49C20.2302 4.82 19.8902 5 19.5402 5C19.3702 5 19.2102 4.96 19.0502 4.87C17.8102 4.18 17.0402 4 15.3002 4C15.3002 4 13.2702 4.02 11.3402 5.23C8.78023 6.84 7.47023 9.74 7.47023 13.85C7.47023 13.88 7.46023 13.91 7.45023 13.93C7.45023 13.96 7.47023 13.99 7.47023 14.03C7.45023 14.58 6.98023 15.04 6.44023 14.99C5.98023 14.99 5.68023 15.09 5.43023 15.33C5.15023 15.6 4.99023 16.02 4.99023 16.49C4.99023 18.17 6.14023 19.99 7.99023 19.99C8.01023 19.99 8.02023 19.99 8.04023 20C8.11023 20 8.18023 20.02 8.25023 20.04C8.31023 20.06 8.36023 20.07 8.42023 20.09C8.48023 20.12 8.53023 20.16 8.58023 20.2C8.63023 20.24 8.68023 20.27 8.72023 20.32C8.76023 20.36 8.79023 20.42 8.82023 20.47C8.86023 20.53 8.89023 20.59 8.92023 20.65C8.92023 20.67 8.94023 20.68 8.95023 20.7C9.76023 23.42 11.7502 27.99 15.9802 27.99C20.4202 27.99 22.4202 22.72 23.2102 19.57C23.3502 19.03 23.8902 18.71 24.4202 18.85C24.9602 18.99 25.2802 19.53 25.1402 20.06L25.1602 20.07ZM16.0002 24.83C16.8602 24.83 17.7202 24.55 18.5602 24C19.0202 23.69 19.1402 23.07 18.8402 22.61C18.5302 22.15 17.9102 22.02 17.4502 22.33C16.4502 23 15.5602 23 14.5602 22.33C14.1002 22.02 13.4802 22.15 13.1702 22.61C12.8602 23.07 12.9902 23.69 13.4502 24C14.2802 24.56 15.1402 24.84 16.0002 24.84V24.83ZM13.6202 13.43C12.2202 12.5 10.7402 12.49 9.34023 13.43C8.88023 13.74 8.76023 14.36 9.06024 14.82C9.25024 15.11 9.57023 15.27 9.89023 15.27C10.0802 15.27 10.2702 15.22 10.4402 15.1C11.1602 14.62 11.7802 14.62 12.5002 15.1C12.9602 15.41 13.5802 15.29 13.8902 14.82C14.2002 14.36 14.0702 13.74 13.6102 13.43H13.6202ZM14.8902 19.96C15.0602 20.08 15.2602 20.13 15.4502 20.13C15.7702 20.13 16.0902 19.98 16.2802 19.69C16.9902 18.64 17.2202 17.55 16.9802 16.46C16.8602 15.92 16.3202 15.58 15.7902 15.7C15.2502 15.82 14.9102 16.36 15.0302 16.89C15.1502 17.43 15.0202 17.98 14.6202 18.57C14.3102 19.03 14.4302 19.65 14.8902 19.96ZM30.0602 10.47C30.0602 10.97 29.6602 11.37 29.1602 11.37C25.6202 11.37 24.9302 15.92 24.9002 16.11C24.9002 16.13 24.8802 16.15 24.8802 16.18C24.8702 16.23 24.8502 16.28 24.8302 16.32C24.8102 16.38 24.7802 16.43 24.7502 16.48C24.7202 16.52 24.6902 16.56 24.6602 16.59C24.6202 16.64 24.5702 16.67 24.5202 16.71C24.4802 16.74 24.4402 16.76 24.4002 16.78C24.3402 16.81 24.2802 16.83 24.2102 16.84C24.1802 16.84 24.1502 16.87 24.1202 16.87C24.0902 16.87 24.0502 16.87 24.0202 16.87C23.9802 16.87 23.9402 16.87 23.9002 16.87C23.8702 16.87 23.8402 16.85 23.8102 16.84C23.7502 16.82 23.6902 16.8 23.6302 16.78C23.5802 16.76 23.5402 16.73 23.5002 16.7C23.4502 16.66 23.4102 16.62 23.3702 16.58C23.3402 16.54 23.3002 16.5 23.2802 16.46C23.2502 16.41 23.2202 16.36 23.2002 16.3C23.1802 16.25 23.1602 16.2 23.1502 16.15C23.1502 16.13 23.1302 16.11 23.1302 16.08C23.1102 15.89 22.5502 11.36 19.0202 11.36C18.5202 11.36 18.1202 10.96 18.1202 10.46C18.1202 9.96 18.5202 9.56 19.0202 9.56C22.5402 9.56 23.1002 5.07 23.1302 4.88C23.1302 4.86 23.1502 4.84 23.1502 4.82C23.1602 4.76 23.1802 4.7 23.2102 4.64C23.2302 4.59 23.2502 4.55 23.2802 4.51C23.3202 4.45 23.3602 4.41 23.4102 4.36C23.4402 4.33 23.4702 4.29 23.5102 4.27C23.5602 4.23 23.6202 4.21 23.6802 4.18C23.7302 4.16 23.7802 4.14 23.8302 4.13C23.8502 4.13 23.8702 4.11 23.9002 4.11C23.9402 4.11 23.9802 4.11 24.0102 4.11C24.0502 4.11 24.0802 4.1 24.1202 4.1C24.1402 4.1 24.1602 4.12 24.1902 4.12C24.2502 4.13 24.3002 4.15 24.3602 4.17C24.4102 4.19 24.4602 4.21 24.5102 4.24C24.5602 4.27 24.6002 4.31 24.6402 4.35C24.6802 4.39 24.7202 4.43 24.7502 4.47C24.7802 4.52 24.8102 4.57 24.8302 4.62C24.8502 4.67 24.8802 4.73 24.8902 4.79C24.8902 4.81 24.9102 4.83 24.9102 4.85C24.9402 5.04 25.6302 9.56 29.1702 9.56C29.6702 9.56 30.0702 9.96 30.0702 10.46L30.0602 10.47ZM26.1902 10.47C25.2402 9.83 24.5402 8.92 24.0502 7.96C23.5802 8.91 22.9002 9.82 21.9702 10.47C22.9002 11.12 23.5802 12.03 24.0502 12.99C24.5402 12.03 25.2402 11.11 26.1902 10.47Z" fill="#024588"/>
</svg>
