<svg width="32" height="32" viewBox="0 0 32 32" fill="none" xmlns="http://www.w3.org/2000/svg">
<path d="M22 7C19.24 7 17 9.24 17 12V25C17 26.66 15.65 28 14 28C12.35 28 11 26.65 11 25V24.89C12.16 24.58 13.07 23.6 13.21 22.36C13.73 17.97 13.99 13.82 14 10.01V9.99C14.64 9.13 15 8.11 15 7.01C15 4.25 12.76 2.01 10 2.01C7.24 2.01 5 4.25 5 7.01C5 8.09 5.36 9.12 6 9.97V10.01C6 15.49 6.35 18.48 6.75 21.93L6.8 22.35C6.95 23.59 7.84 24.57 9 24.89V25.01C9 27.76 11.24 30.01 14 30.01C16.76 30.01 19 27.77 19 25.01V12.01C19 10.35 20.35 9.01 22 9.01C23.65 9.01 25 10.36 25 12.01V28.01C25 28.56 25.45 29.01 26 29.01C26.55 29.01 27 28.56 27 28.01V12C27 9.24 24.76 7 22 7ZM10 4C11.66 4 13 5.35 13 7C13 7.82 12.67 8.59 12.08 9.16C10.67 9.43 9.25 9.43 7.84 9.15C7.81 9.1 7.79 9.04 7.75 8.99C7.27 8.44 7 7.74 7 7C7 5.34 8.35 4 10 4ZM8.74 21.69C8.36 18.43 8.05 15.81 8.01 11.22C9.34 11.43 10.67 11.43 12 11.22C11.95 14.61 11.69 18.27 11.24 22.12C11.18 22.62 10.75 23 10.24 23H9.8C9.29 23 8.86 22.62 8.8 22.11L8.75 21.69H8.74Z" fill="#024588"/>
</svg>
