<svg width="32" height="32" viewBox="0 0 32 32" fill="none" xmlns="http://www.w3.org/2000/svg">
<path d="M20.4596 17.12C21.9296 15.66 29.2696 8.22 29.2796 4.78C29.2796 4.02 28.9696 3.55 28.7096 3.29C28.4496 3.03 27.9896 2.72 27.2496 2.72C24.1196 2.72 17.5596 9.01 14.8896 11.7C11.7896 14.84 9.45956 17.68 8.37956 19.05C7.12956 19.11 5.85956 19.65 4.84956 20.66C3.38956 22.12 3.01956 25.39 2.92956 26.72C2.88956 27.34 3.11956 27.96 3.55956 28.4C3.96956 28.81 4.51956 29.03 5.08956 29.03C5.13956 29.03 5.18956 29.03 5.23956 29.03C6.92956 28.92 9.96956 28.52 11.3396 27.15C12.3396 26.15 12.8796 24.89 12.9496 23.64C14.2696 22.64 17.2796 20.27 20.4696 17.11L20.4596 17.12ZM16.2996 13.11C22.3996 6.95 26.4496 4.48 27.2796 4.7C27.5496 5.61 24.8096 10 19.0596 15.7C18.3596 16.39 17.6696 17.04 17.0096 17.65L14.4296 15.07C15.0196 14.43 15.6396 13.78 16.2996 13.11ZM13.0896 16.55L15.5196 18.98C14.3296 20.02 13.2896 20.85 12.5096 21.47C12.3096 21.04 12.0596 20.64 11.7096 20.3C11.3696 19.96 10.9796 19.72 10.5696 19.52C11.1896 18.76 12.0496 17.73 13.0896 16.56V16.55ZM9.92956 25.75C9.28956 26.38 7.39956 26.9 5.10956 27.05C5.04956 27.05 4.99956 27.03 4.97956 27C4.94956 26.97 4.92956 26.93 4.92956 26.87C5.04956 25.03 5.51956 22.84 6.26956 22.08C6.94956 21.4 7.82956 21.04 8.63956 21.04C9.26956 21.04 9.86956 21.26 10.3196 21.7C11.3296 22.71 11.1596 24.53 9.93956 25.74L9.92956 25.75ZM2.99956 10.43C2.38956 9.82 2.05956 9 2.06956 8.13C2.07956 7.27 2.42956 6.45 3.03956 5.84L5.83956 3.04C6.44956 2.42 7.26956 2.08 8.12956 2.07C9.00956 2.06 9.81956 2.39 10.4296 3L15.2296 7.8C15.6196 8.19 15.6196 8.82 15.2296 9.21C14.8396 9.6 14.2096 9.6 13.8196 9.21L9.01956 4.41C8.79956 4.19 8.49956 4.06 8.16956 4.06H8.14956C7.80956 4.06 7.48956 4.2 7.24956 4.45L4.44956 7.25C4.20956 7.5 4.06956 7.82 4.05956 8.15C4.05956 8.48 4.17956 8.79 4.40956 9.01L5.51956 10.12L7.11956 8.52C7.50956 8.13 8.13956 8.13 8.52956 8.52C8.91956 8.91 8.91956 9.54 8.52956 9.93L6.92956 11.53L8.36956 12.97L9.96956 11.37C10.3596 10.98 10.9896 10.98 11.3796 11.37C11.7696 11.76 11.7696 12.39 11.3796 12.78L9.07956 15.08C8.88956 15.28 8.62956 15.37 8.36956 15.37C8.10956 15.37 7.85956 15.27 7.65956 15.08L2.98956 10.41L2.99956 10.43ZM28.9496 26.16L26.1696 28.94C25.5596 29.55 24.7496 29.9 23.8796 29.9H23.8496C22.9896 29.9 22.1896 29.57 21.5896 28.97L17.0296 24.41C16.6396 24.02 16.6396 23.39 17.0296 23L19.3096 20.72C19.6996 20.33 20.3296 20.33 20.7196 20.72C21.1096 21.11 21.1096 21.74 20.7196 22.13L19.1396 23.71L20.5796 25.15L22.1596 23.57C22.5496 23.18 23.1796 23.18 23.5696 23.57C23.9596 23.96 23.9596 24.59 23.5696 24.98L21.9896 26.56L22.9996 27.57C23.2296 27.8 23.5296 27.92 23.8496 27.92C23.8496 27.92 23.8496 27.92 23.8596 27.92C24.1996 27.92 24.5096 27.78 24.7496 27.54L27.5296 24.76C28.0196 24.27 28.0296 23.48 27.5596 23L22.8096 18.25C22.4196 17.86 22.4196 17.23 22.8096 16.84C23.1996 16.45 23.8296 16.45 24.2196 16.84L28.9696 21.59C30.2196 22.84 30.2096 24.9 28.9396 26.17L28.9496 26.16Z" fill="#024588"/>
</svg>
