<svg width="32" height="32" viewBox="0 0 32 32" fill="none" xmlns="http://www.w3.org/2000/svg">
<path d="M10.0496 14.46C10.5196 13 11.4296 12.02 12.8096 11.46C13.8396 11.05 15.2496 10.99 15.9996 10.99C16.7496 10.99 18.1596 11.05 19.1896 11.46C20.5796 12.02 21.4796 13 21.9596 14.46C22.1296 14.99 21.8396 15.55 21.3196 15.72C21.2196 15.75 21.1096 15.77 21.0096 15.77C20.5896 15.77 20.1996 15.5 20.0596 15.08C19.7696 14.18 19.2896 13.65 18.4496 13.32C17.9396 13.11 17.0196 12.99 16.0096 12.99C14.9996 12.99 14.0796 13.11 13.5696 13.32C12.7396 13.66 12.2596 14.18 11.9596 15.08C11.8196 15.5 11.4296 15.77 11.0096 15.77C10.9096 15.77 10.7996 15.75 10.6996 15.72C10.1696 15.55 9.88957 14.99 10.0596 14.46H10.0496ZM12.1696 5.82C12.1696 3.71 13.8796 2 15.9896 2C18.0996 2 19.8096 3.71 19.8096 5.82C19.8096 7.93 18.0996 9.64 15.9896 9.64C13.8796 9.64 12.1696 7.93 12.1696 5.82ZM14.1696 5.82C14.1696 6.82 14.9896 7.64 15.9896 7.64C16.9896 7.64 17.8096 6.82 17.8096 5.82C17.8096 4.82 16.9896 4 15.9896 4C14.9896 4 14.1696 4.82 14.1696 5.82ZM28.8396 24.26C27.3996 26.07 25.7596 27.23 24.4296 28.16C24.0096 28.45 23.6096 28.73 23.2496 29.01C23.1596 29.08 23.0796 29.16 23.0196 29.24C22.6596 29.71 22.0696 30 21.4596 30H10.5596C9.90957 30 9.30957 29.69 8.91957 29.14C8.83957 29.03 8.78957 28.98 8.74957 28.96C8.35957 28.66 7.93957 28.37 7.49957 28.06C6.20957 27.16 4.58957 26.05 3.18957 24.27C1.35957 21.95 1.91957 10.72 3.00957 9.69C3.59957 9.13 4.80957 8.77 5.86957 9.19C6.71957 9.53 7.74957 10.47 7.86957 12.98C7.90957 13.9 8.23957 15.69 8.44957 16.78C9.10957 16.67 9.80957 16.82 10.4296 17.26C10.5296 17.33 13.0896 19.13 15.0996 20.84C15.4696 21.16 15.7596 21.5 16.0296 21.85C16.2996 21.49 16.5896 21.15 16.9596 20.84C18.9496 19.13 21.5296 17.33 21.6396 17.26C22.2596 16.82 22.9496 16.67 23.6096 16.79C23.8196 15.7 24.1396 13.91 24.1896 12.98C24.2996 10.48 25.3396 9.54 26.1796 9.2C27.2396 8.77 28.4496 9.13 29.0496 9.69C30.1296 10.74 30.6796 21.97 28.8696 24.27L28.8396 24.26ZM15.0096 27.99V26.17V24.25C14.7996 23.5 14.4196 22.9 13.7796 22.35C11.8596 20.71 9.28957 18.91 9.25957 18.89C9.11957 18.79 8.78957 18.55 8.41957 18.96C8.20957 19.19 8.13957 19.49 8.21957 19.62L11.7896 22.86C12.1996 23.23 12.2296 23.86 11.8596 24.27C11.4896 24.68 10.8596 24.71 10.4496 24.34L6.73957 20.97C6.03957 20.18 6.01957 18.97 6.64957 18.01C6.52957 17.42 5.93957 14.48 5.86957 13.07C5.81957 11.99 5.54957 11.23 5.13957 11.05C4.91957 10.95 4.63957 11.01 4.48957 11.08C4.00957 12.74 3.57957 21.53 4.76957 23.03C5.98957 24.58 7.39957 25.56 8.64957 26.42C9.11957 26.75 9.56957 27.06 9.96957 27.37C10.1696 27.52 10.3596 27.72 10.5396 27.97L15.0096 28V27.99ZM27.5496 11.08C27.3996 11.02 27.1296 10.96 26.8996 11.05C26.4896 11.23 26.2196 11.99 26.1696 13.06C26.0996 14.47 25.5096 17.42 25.3896 18C26.0096 18.97 25.9896 20.18 25.2896 20.97L25.2196 21.04L21.5896 24.33C21.1796 24.7 20.5496 24.67 20.1796 24.26C19.8096 23.85 19.8396 23.22 20.2496 22.85L23.8196 19.61C23.8896 19.49 23.8296 19.19 23.6196 18.96C23.2496 18.55 22.9196 18.79 22.7896 18.88C22.7496 18.91 20.1696 20.71 18.2596 22.35C17.6296 22.89 17.2496 23.48 17.0296 24.25V27.99H21.4796C21.6296 27.79 21.8296 27.59 22.0596 27.41C22.4396 27.12 22.8596 26.82 23.3096 26.51C24.5896 25.61 26.0396 24.6 27.2996 23.01C28.4696 21.52 28.0496 12.73 27.5696 11.06L27.5496 11.08Z" fill="#024588"/>
</svg>
