<svg width="32" height="32" viewBox="0 0 32 32" fill="none" xmlns="http://www.w3.org/2000/svg">
<path d="M9.51003 28C8.89003 28 8.27003 27.8 7.74003 27.42C6.83003 26.76 6.38003 25.7 6.51003 24.59L7.22003 18.94L3.31003 14.71C2.54003 13.89 2.29003 12.77 2.64003 11.7C2.99003 10.63 3.85003 9.87 4.95003 9.66L10.54 8.59C11.32 6.92 12.24 4.98 13.39 3.49C13.94 2.55 14.91 2 16 2C17.09 2 18.11 2.59 18.65 3.57L21.4 8.55L27.05 9.67C28.15 9.88 29.01 10.64 29.36 11.71C29.71 12.78 29.46 13.9 28.69 14.72L24.8 18.87L25.48 24.59C25.62 25.7 25.16 26.76 24.25 27.42C23.34 28.08 22.2 28.19 21.18 27.71L16.03 25.29L10.8 27.71C10.38 27.91 9.94003 28 9.51003 28ZM16 4C15.82 4 15.36 4.05 15.1 4.53L15.01 4.66C13.97 5.99 13.1 7.82 12.39 9.43C12.05 10.05 11.53 10.43 10.91 10.55L5.32003 11.62C4.78003 11.72 4.59003 12.14 4.53003 12.31C4.47003 12.48 4.38003 12.93 4.76003 13.33L8.65003 17.48C9.08003 17.93 9.28003 18.55 9.20003 19.17L8.49003 24.82C8.42003 25.36 8.76003 25.67 8.91003 25.78C9.06003 25.89 9.46003 26.11 9.95003 25.88L15.1 23.46C15.66 23.2 16.31 23.19 16.88 23.46L22.03 25.88C22.53 26.11 22.92 25.88 23.07 25.78C23.22 25.67 23.56 25.36 23.49 24.82L22.78 19.17C22.7 18.55 22.9 17.94 23.33 17.48L27.22 13.33C27.6 12.93 27.5 12.48 27.45 12.31C27.39 12.14 27.2 11.72 26.66 11.62L21.07 10.55C20.46 10.43 19.94 10.05 19.63 9.51L16.88 4.53C16.62 4.05 16.16 4 15.98 4H16Z" fill="#024588"/>
</svg>
