<svg width="32" height="32" viewBox="0 0 32 32" fill="none" xmlns="http://www.w3.org/2000/svg">
<path d="M28.2602 9.78C27.7302 7.55 25.7402 6 23.4102 6H22.0002V4C22.0002 3.45 21.5502 3 21.0002 3C20.4502 3 20.0002 3.45 20.0002 4V6H17.4002H12.0002V4C12.0002 3.45 11.5502 3 11.0002 3C10.4502 3 10.0002 3.45 10.0002 4V6H8.59023C6.26023 6 4.27023 7.56 3.74023 9.78C3.24023 11.86 2.99023 14.63 2.99023 18C2.99023 21.37 3.24023 24.13 3.74023 26.22C4.27023 28.45 6.26023 30 8.59023 30H17.4002H23.4002C25.7302 30 27.7202 28.44 28.2502 26.22C28.7402 24.14 29.0002 21.37 29.0002 18C29.0002 14.63 28.7502 11.87 28.2502 9.78H28.2602ZM8.59023 8H10.0002V10C10.0002 10.55 10.4502 11 11.0002 11C11.5502 11 12.0002 10.55 12.0002 10V8H17.0002H17.4102H18.0102H20.0102V10C20.0102 10.55 20.4602 11 21.0102 11C21.5602 11 22.0102 10.55 22.0102 10V8H23.4202C24.8202 8 26.0102 8.92 26.3302 10.25C26.5802 11.31 26.7602 12.57 26.8802 14.02C26.8602 14.02 26.8302 14.01 26.8102 14.01H5.32023C5.26023 14.01 5.20023 14.03 5.14023 14.05C5.25023 12.59 5.44023 11.32 5.69023 10.26C6.00023 8.94 7.20023 8.01 8.60023 8.01L8.59023 8ZM26.3102 25.75C26.0002 27.07 24.8002 28 23.4002 28H17.9902H17.4002H17.0002H8.59023C7.19023 28 6.00023 27.08 5.68023 25.75C5.22023 23.82 4.99023 21.21 4.99023 18C4.99023 17.28 5.00023 16.6 5.03023 15.94C5.12023 15.97 5.21023 16 5.32023 16H26.7902C26.8502 16 26.9102 15.98 26.9702 15.96C26.9902 16.61 27.0102 17.29 27.0102 18C27.0102 21.21 26.7802 23.82 26.3202 25.75H26.3102ZM20.4802 19.04C22.1102 18.75 23.6702 19.84 23.9502 21.47C24.2302 23.1 23.1502 24.66 21.5202 24.94C19.8902 25.22 18.3302 24.14 18.0502 22.51C17.7602 20.88 18.8502 19.32 20.4802 19.04Z" fill="#024588"/>
</svg>
