<svg width="32" height="32" viewBox="0 0 32 32" fill="none" xmlns="http://www.w3.org/2000/svg">
<path d="M29.48 11.33C29 8.83 26.7 7.02 24.02 7.02H16.66L16.03 5.56C15.55 4.6 14.58 4 13.51 4H7.99C5.3 4 3 5.92 2.53 8.57C2.21 10.36 2 15.05 2 16.91C2 18.96 2.23 21.76 2.53 23.43C3.01 26.08 5.3 28 7.99 28H24.02C26.7 28 29 26.19 29.48 23.69C29.82 21.91 30.01 19.18 30.01 17.51C30.01 15.84 29.82 13.11 29.48 11.33ZM27.52 23.31C27.22 24.87 25.75 26 24.02 26H7.99C6.27 26 4.8 24.77 4.5 23.07C4.22 21.53 4 18.82 4 16.9C4 14.98 4.2 10.53 4.5 8.92C4.8 7.22 6.27 5.99 7.99 5.99H13.51C13.82 5.99 14.1 6.16 14.22 6.39L15.08 8.39C15.08 8.39 15.11 8.44 15.13 8.46C15.18 8.55 15.23 8.64 15.3 8.71C15.34 8.75 15.4 8.78 15.45 8.81C15.51 8.85 15.56 8.89 15.62 8.92C15.7 8.95 15.78 8.96 15.87 8.97C15.91 8.97 15.95 9 16 9H24.01C25.74 9 27.21 10.13 27.51 11.69C27.82 13.29 28 15.9 28 17.49C28 19.08 27.82 21.69 27.51 23.29L27.52 23.31ZM9 13C9 11.9 9.9 11 11 11C12.1 11 13 11.9 13 13C13 14.1 12.1 15 11 15C9.9 15 9 14.1 9 13ZM14.96 19.47C15.09 20.14 14.57 20.78 13.78 20.9C13.45 20.95 13.06 20.97 12.61 20.98C12.3 20.98 11.36 20.98 10.99 20.98C10.62 20.98 9.68 20.98 9.37 20.98C8.92 20.98 8.53 20.95 8.2 20.9C7.41 20.78 6.9 20.14 7.02 19.47L7.13 18.92C7.32 17.85 7.95 17.26 8.97 17.11C9.47 17.04 9.75 17 10.99 17C12.23 17 12.51 17.04 13.01 17.11C14.03 17.26 14.66 17.85 14.85 18.92L14.96 19.47ZM25 15C25 15.55 24.55 16 24 16H19C18.45 16 18 15.55 18 15C18 14.45 18.45 14 19 14H24C24.55 14 25 14.45 25 15ZM25 20C25 20.55 24.55 21 24 21H19C18.45 21 18 20.55 18 20C18 19.45 18.45 19 19 19H24C24.55 19 25 19.45 25 20Z" fill="#024588"/>
</svg>
