<svg width="32" height="32" viewBox="0 0 32 32" fill="none" xmlns="http://www.w3.org/2000/svg">
<path d="M3 11H16.09C16.55 13.29 18.58 15.01 21 15.01C23.42 15.01 25.45 13.28 25.91 11H29C29.55 11 30 10.55 30 9.99999C30 9.44999 29.55 8.99999 29 8.99999H25.91C25.45 6.70999 23.42 4.98999 21 4.98999C18.58 4.98999 16.55 6.71999 16.09 8.99999H3C2.45 8.99999 2 9.44999 2 9.99999C2 10.55 2.45 11 3 11ZM21 6.98999C22.66 6.98999 24.01 8.33999 24.01 9.99999C24.01 11.66 22.66 13.01 21 13.01C19.34 13.01 17.99 11.66 17.99 9.99999C17.99 8.33999 19.34 6.98999 21 6.98999ZM29 21H15.91C15.45 18.71 13.42 16.99 11 16.99C8.58 16.99 6.55 18.72 6.09 21H3C2.45 21 2 21.45 2 22C2 22.55 2.45 23 3 23H6.09C6.55 25.29 8.58 27.01 11 27.01C13.42 27.01 15.45 25.28 15.91 23H29C29.55 23 30 22.55 30 22C30 21.45 29.55 21 29 21ZM11 25.01C9.34 25.01 7.99 23.66 7.99 22C7.99 20.34 9.34 18.99 11 18.99C12.66 18.99 14.01 20.34 14.01 22C14.01 23.66 12.66 25.01 11 25.01Z" fill="#024588"/>
</svg>
