<svg width="32" height="32" viewBox="0 0 32 32" fill="none" xmlns="http://www.w3.org/2000/svg">
<path d="M25.7102 18.3201C25.3302 17.9301 24.7102 17.9101 24.3202 18.2901L17.0002 25.3001V4.87012C17.0002 4.32012 16.5502 3.87012 16.0002 3.87012C15.4502 3.87012 15.0002 4.32012 15.0002 4.87012V25.2901L7.68017 18.2801C7.29017 17.9001 6.67017 17.9201 6.29017 18.3101C5.91017 18.7001 5.93017 19.3301 6.32017 19.7001L14.2202 27.2701C14.7502 27.7301 15.3702 27.9701 15.9902 27.9701C16.6102 27.9701 17.2602 27.7301 17.8102 27.2401L25.6802 19.7001C26.0702 19.3201 26.0902 18.7001 25.7102 18.3101V18.3201Z" fill="#024588"/>
</svg>
