<svg width="32" height="32" viewBox="0 0 32 32" fill="none" xmlns="http://www.w3.org/2000/svg">
<path d="M25.6802 12.2901L17.7802 4.72009C16.7102 3.78009 15.2802 3.78009 14.1902 4.75009L6.32017 12.2901C5.93017 12.6701 5.91017 13.2901 6.29017 13.6801C6.48017 13.8801 6.74017 13.9801 7.00017 13.9801C7.25017 13.9801 7.49017 13.8901 7.68017 13.7101L15.0002 6.70009V27.1201C15.0002 27.6701 15.4502 28.1201 16.0002 28.1201C16.5502 28.1201 17.0002 27.6701 17.0002 27.1201V6.70009L24.3202 13.7101C24.7102 14.0901 25.3402 14.0701 25.7102 13.6801C26.0902 13.2901 26.0702 12.6601 25.6802 12.2901Z" fill="#024588"/>
</svg>
