<svg width="32" height="32" viewBox="0 0 32 32" fill="none" xmlns="http://www.w3.org/2000/svg">
<path d="M27.2498 14.9999H6.69985L13.7098 7.67992C14.0898 7.28992 14.0698 6.65992 13.6798 6.28992C13.2898 5.90992 12.6698 5.92992 12.2898 6.31992L4.71985 14.2199C3.77985 15.2799 3.77985 16.7199 4.74985 17.8099L12.2898 25.6799C12.4798 25.8799 12.7398 25.9799 12.9998 25.9799C13.2498 25.9799 13.4899 25.8899 13.6798 25.7099C14.0698 25.3299 14.0898 24.7099 13.7098 24.3199L6.69985 16.9999H27.2498C27.7998 16.9999 28.2498 16.5499 28.2498 15.9999C28.2498 15.4499 27.7998 14.9999 27.2498 14.9999Z" fill="#024588"/>
</svg>
