<svg width="32" height="32" viewBox="0 0 32 32" fill="none" xmlns="http://www.w3.org/2000/svg">
<path d="M27.2498 14.1899L19.7098 6.31992C19.3298 5.92992 18.7098 5.90992 18.3198 6.28992C17.9298 6.66992 17.9098 7.28992 18.2898 7.67992L25.2998 14.9999H5.00977C4.45977 14.9999 4.00977 15.4499 4.00977 15.9999C4.00977 16.5499 4.45977 16.9999 5.00977 16.9999H25.2998L18.2898 24.3199C17.9098 24.7099 17.9298 25.3399 18.3198 25.7099C18.5098 25.8899 18.7598 25.9799 18.9998 25.9799C19.2598 25.9799 19.5198 25.8799 19.7098 25.6799L27.2798 17.7799C28.2198 16.7099 28.2198 15.2799 27.2498 14.1899Z" fill="#024588"/>
</svg>
