<svg width="32" height="32" viewBox="0 0 32 32" fill="none" xmlns="http://www.w3.org/2000/svg">
<path d="M29.5003 8.14C29.1103 6.32 27.5303 5 25.7503 5H21.2003H14.4103C12.4403 5 10.7503 6.28 10.3003 8.12C9.94027 9.59 9.71027 11.61 9.71027 13.39C9.71027 15.36 9.99027 16.66 10.3003 17.91C10.7503 19.74 12.4403 21.03 14.4103 21.03H21.2303C21.2303 21.03 21.2403 21.03 21.2503 21.03H24.3103C24.5003 21.2 24.8403 21.61 25.1303 22.03L26.1503 23.3C26.5603 23.76 27.1203 24.01 27.6903 24.01C27.8603 24.01 28.0303 23.99 28.2003 23.94C28.9403 23.74 29.5003 23.11 29.6603 22.29C29.7603 21.79 30.0203 19.05 30.0203 14.6C30.0203 11.8 29.8603 9.75 29.5203 8.15L29.5003 8.14ZM27.6803 21.9C27.6803 21.9 27.6603 21.97 27.6503 21.98L26.7203 20.83C25.5003 19.01 24.7403 19.01 24.4903 19.01H15.2003C15.1803 19.01 15.1703 19.01 15.1503 19.01H14.3903C13.3603 19.01 12.4403 18.34 12.2203 17.42C11.9303 16.24 11.6903 15.13 11.6903 13.38C11.6903 11.44 11.9603 9.63 12.2203 8.59C12.4503 7.67 13.3603 7 14.3903 7H21.1603H25.7403C26.5903 7 27.3403 7.66 27.5403 8.57C27.8503 10.03 28.0003 11.94 28.0003 14.6C28.0003 19.15 27.7203 21.68 27.6803 21.91V21.9ZM19.3003 22.89C19.6203 23.34 19.5003 23.97 19.0503 24.28C18.3803 24.74 17.5503 25 16.7103 25H10.7403C10.7403 25 10.7403 25 10.7303 25H7.61027C7.43027 25.12 7.09027 25.45 6.84027 25.75L5.86027 26.73C5.42027 27.12 4.89027 27.32 4.35027 27.32C4.14027 27.32 3.93027 27.29 3.73027 27.23C3.06027 27.02 2.56027 26.5 2.40027 25.83C2.29027 25.39 2.03027 22.79 2.03027 19.25C2.03027 16.86 2.19027 15.11 2.54027 13.74C2.95027 12.15 4.52027 11 6.29027 11H7.00027C7.55027 11 8.00027 11.45 8.00027 12C8.00027 12.55 7.55027 13 7.00027 13H6.29027C5.43027 13 4.67027 13.52 4.48027 14.23C4.17027 15.44 4.03027 17.03 4.03027 19.25C4.03027 22.63 4.28027 24.99 4.35027 25.36C4.35027 25.33 4.42027 25.33 4.49027 25.28L5.37027 24.4C6.12027 23.5 6.85027 23 7.47027 23H16.7603C17.1803 23 17.5903 22.87 17.9103 22.65C18.3703 22.33 18.9903 22.45 19.3003 22.9V22.89Z" fill="#024588"/>
</svg>
