<svg width="32" height="32" viewBox="0 0 32 32" fill="none" xmlns="http://www.w3.org/2000/svg">
<path d="M30.01 12.51C30.01 11.69 29.63 10.93 28.98 10.42C28.75 10.24 28.55 10.1 28.41 10.01C27.35 9.35001 25.99 8.63001 24.34 7.85001C21.93 6.70001 19.77 5.85001 17.93 5.32001C17.35 5.15001 16.72 5.05001 16.05 5.01001C16.03 5.01001 16.02 5.01001 16 5.01001C15.98 5.01001 15.97 5.01001 15.95 5.01001C15.28 5.04001 14.65 5.15001 14.07 5.32001C12.23 5.86001 10.08 6.71001 7.66 7.86001C6.02 8.64001 4.65 9.37001 3.59 10.03C3.45 10.12 3.25 10.26 3.03 10.44C2.37 10.95 2 11.71 2 12.53C2 13.35 2.37 14.1 3.03 14.61C3.23 14.77 3.41 14.9 3.54 14.98C4.46 15.56 5.63 16.19 7 16.86V21.97C7 23.14 7.68 24.21 8.74 24.69C10.57 25.52 12.28 26.18 13.82 26.66C14.48 26.86 15.19 26.98 15.94 27.02C15.96 27.02 15.98 27.02 15.99 27.02C16.01 27.02 16.03 27.02 16.04 27.02C16.8 26.98 17.51 26.86 18.17 26.66C19.71 26.19 21.42 25.52 23.25 24.69C24.31 24.21 24.99 23.14 24.99 21.97V16.86C26.15 16.29 27.15 15.76 27.99 15.26V23.02C27.99 23.57 28.44 24.02 28.99 24.02C29.54 24.02 29.99 23.57 29.99 23.02V12.67V12.65C29.99 12.61 30 12.57 30 12.53L30.01 12.51ZM22.43 22.85C20.67 23.65 19.05 24.28 17.59 24.73C17.11 24.88 16.56 24.97 16 25C15.44 24.97 14.88 24.88 14.41 24.73C12.95 24.28 11.32 23.65 9.57 22.85C9.23 22.69 9 22.34 9 21.95V17.77C10.88 18.61 12.58 19.26 14.07 19.7C14.65 19.87 15.28 19.97 15.95 20C15.97 20 15.98 20 16 20C16.02 20 16.03 20 16.05 20C16.72 19.97 17.35 19.86 17.93 19.7C19.42 19.27 21.12 18.61 22.99 17.78V21.95C22.99 22.34 22.77 22.7 22.42 22.85H22.43ZM27.41 13.26C26.41 13.89 25.09 14.59 23.48 15.35C21.16 16.45 19.11 17.27 17.37 17.77C16.96 17.89 16.49 17.96 16 17.99C15.51 17.96 15.04 17.89 14.63 17.77C12.89 17.26 10.84 16.45 8.52 15.35C6.92 14.59 5.6 13.89 4.6 13.26C4.52 13.21 4.39 13.12 4.26 13.01C4.04 12.83 4 12.62 4 12.5C4 12.38 4.03 12.16 4.26 11.98C4.42 11.86 4.55 11.76 4.65 11.7C5.65 11.08 6.95 10.39 8.52 9.64001C10.84 8.54001 12.89 7.72001 14.63 7.22001C15.04 7.10001 15.51 7.03001 16 7.00001C16.49 7.03001 16.96 7.10001 17.37 7.22001C19.11 7.73001 21.16 8.54001 23.48 9.64001C25.06 10.39 26.36 11.08 27.35 11.7C27.45 11.76 27.58 11.86 27.74 11.98C27.97 12.16 28 12.38 28 12.5C28 12.62 27.97 12.83 27.74 13.01C27.6 13.12 27.48 13.21 27.4 13.26H27.41Z" fill="#024588"/>
</svg>
