<svg width="32" height="32" viewBox="0 0 32 32" fill="none" xmlns="http://www.w3.org/2000/svg">
<path d="M23.21 29.93C22.33 29.93 21.41 29.59 20.63 28.94C19.61 28.1 17.22 25.67 16.01 24.43C14.8 25.67 12.41 28.1 11.39 28.94C10.33 29.81 9.02 30.13 7.89 29.79C6.93 29.51 6.23 28.79 5.91 27.78C5.91 27.75 5.88 27.67 5.87 27.64C5.32 25.35 5 21.1 5 15.99C5 11.41 5.26 8.36998 5.87 5.81998C6.41 3.55998 8.41 1.97998 10.74 1.97998H21.27C23.59 1.97998 25.6 3.55998 26.14 5.81998C26.75 8.37998 27.01 11.42 27.01 15.99C27.01 21.09 26.69 25.34 26.14 27.66C26.14 27.69 26.11 27.77 26.1 27.8C25.78 28.8 25.08 29.51 24.12 29.8C23.82 29.89 23.52 29.93 23.2 29.93H23.21ZM16 21.99C16.27 21.99 16.53 22.1 16.72 22.3C16.76 22.34 20.62 26.35 21.89 27.39C22.42 27.82 23.07 28.01 23.55 27.87C23.86 27.78 24.07 27.55 24.19 27.18C24.7 25.06 25 20.87 25 15.99C25 11.59 24.76 8.67998 24.18 6.28998C23.85 4.93998 22.66 3.98998 21.26 3.98998H10.73C9.34 3.98998 8.14 4.92998 7.81 6.28998C7.24 8.67998 6.99 11.58 6.99 15.99C6.99 20.87 7.3 25.06 7.81 27.19C7.92 27.55 8.13 27.78 8.44 27.87C8.91 28.01 9.57 27.82 10.1 27.39C11.37 26.35 15.23 22.34 15.27 22.3C15.46 22.1 15.72 21.99 15.99 21.99H16Z" fill="#024588"/>
</svg>
