<svg width="32" height="32" viewBox="0 0 32 32" fill="none" xmlns="http://www.w3.org/2000/svg">
<path d="M16 30C8.28 30 2 23.72 2 16C2 8.28 8.28 2 16 2C23.72 2 30 8.28 30 16C30 23.72 23.72 30 16 30ZM16 4C9.38 4 4 9.38 4 16C4 22.62 9.38 28 16 28C22.62 28 28 22.62 28 16C28 9.38 22.62 4 16 4ZM17 22V15C17 14.45 16.55 14 16 14C15.45 14 15 14.45 15 15V22C15 22.55 15.45 23 16 23C16.55 23 17 22.55 17 22ZM16 9.5C15.31 9.5 14.75 10.06 14.75 10.75C14.75 11.44 15.31 12 16 12C16.69 12 17.25 11.44 17.25 10.75C17.25 10.06 16.69 9.5 16 9.5Z" fill="#024588"/>
</svg>
