<svg width="32" height="32" viewBox="0 0 32 32" fill="none" xmlns="http://www.w3.org/2000/svg">
<path d="M22.6802 28.03H20.5602C19.1302 28.03 17.9702 26.9 17.9702 25.52V20.03H14.0202V25.52C14.0202 26.9 12.8602 28.03 11.4302 28.03H9.31021C6.54022 28.03 5.68021 26.09 5.27021 24.64C5.09021 24 4.96022 23.28 4.78022 22.07L4.67021 21.31C4.38021 19.32 4.01021 16.84 3.97021 15.09V13.97C3.97021 12.26 4.83021 10.63 6.28022 9.63004L13.6702 4.65004C14.4002 4.20004 15.2102 3.96004 16.0002 3.98004C16.8402 3.98004 17.5802 4.19004 18.2802 4.62004L25.7002 9.61004C27.1602 10.62 28.0202 12.25 28.0202 13.96V15.06C27.9802 16.83 27.6102 19.31 27.3102 21.3L27.2002 22.06C27.0202 23.29 26.8902 23.99 26.7102 24.63C26.3102 26.09 25.4502 28.02 22.6702 28.02L22.6802 28.03ZM13.8702 17.98H18.1302C19.1802 17.98 20.0302 18.81 20.0302 19.84V25.52C20.0302 25.77 20.2702 25.98 20.5702 25.98H22.6902C23.8702 25.98 24.3502 25.54 24.7502 24.09C24.9002 23.54 25.0202 22.92 25.1902 21.78L25.3002 21.01C25.5902 19.07 25.9402 16.67 25.9802 15.04V13.97C25.9802 12.93 25.4402 11.93 24.5502 11.31L17.1802 6.35004C16.8502 6.15004 16.4702 6.06004 16.0102 6.03004H15.9902C15.5602 6.03004 15.1502 6.15004 14.7902 6.37004L7.44021 11.32C6.56021 11.93 6.02021 12.93 6.02021 13.97V15.07C6.06021 16.67 6.42021 19.08 6.70021 21.01L6.81021 21.78C6.97021 22.9 7.09021 23.55 7.25021 24.09C7.65021 25.54 8.14022 25.98 9.31021 25.98H11.4302C11.7202 25.98 11.9702 25.77 11.9702 25.52V19.84C11.9702 18.82 12.8202 17.98 13.8702 17.98Z" fill="#024588"/>
</svg>
