<svg width="32" height="32" viewBox="0 0 32 32" fill="none" xmlns="http://www.w3.org/2000/svg">
<path d="M27.3098 17.63C27.5798 16.05 27.0698 15.04 26.5998 14.48C25.7698 13.5 24.3898 13 22.4998 13H16.5698C16.6598 12.83 16.7398 12.66 16.8298 12.49C17.7998 10.59 18.7098 8.79 18.7298 5.72C18.7398 4.29 18.4598 3.34 17.8298 2.71C17.5098 2.39 16.9298 2 15.9998 2H15.6898C15.6898 2 15.6098 2 15.5698 2C13.4798 2 12.3598 2.66 11.7098 6.19C11.5998 6.77 10.7298 8.74 10.2498 9.27C6.87985 12.98 6.34985 14.04 5.18985 16.38L5.09985 16.56C4.99985 16.76 4.96985 16.99 5.01985 17.21L6.92985 26.45C7.40985 28.51 9.26985 30.01 11.3598 30.01H20.0098C21.8598 30.01 24.2998 29.28 25.4398 25.82L25.4898 25.68C25.8698 24.54 26.8598 21.53 27.3298 17.75C27.3298 17.71 27.3298 17.68 27.3298 17.64L27.3098 17.63ZM23.5798 25.05L23.5298 25.19C22.8898 27.13 21.7998 28 19.9998 28H11.3498C10.1798 28 9.13985 27.15 8.87985 26.01L7.04985 17.13C8.10985 14.99 8.60985 14.04 11.7298 10.6C12.4998 9.75 13.5098 7.45 13.6798 6.54C14.1498 3.97 14.4798 3.98 15.6698 3.99H15.9998C16.2998 3.99 16.3798 4.08 16.4098 4.11C16.5098 4.21 16.7398 4.56 16.7298 5.7C16.7098 8.3 15.9398 9.82 15.0498 11.58C14.7298 12.21 14.3998 12.86 14.0798 13.6C13.9498 13.91 13.9798 14.26 14.1598 14.54C14.3498 14.82 14.6598 14.99 14.9898 14.99H22.4898C23.7498 14.99 24.6398 15.26 25.0598 15.76C25.3498 16.11 25.4398 16.62 25.3298 17.28C25.3198 17.34 25.3298 17.4 25.3298 17.45C25.3298 17.46 25.3198 17.47 25.3198 17.48C24.8798 21.06 23.9298 23.94 23.5698 25.03L23.5798 25.05Z" fill="#024588"/>
</svg>
