<svg width="32" height="32" viewBox="0 0 32 32" fill="none" xmlns="http://www.w3.org/2000/svg">
<path d="M21 17H11C10.45 17 10 16.55 10 16C10 15.45 10.45 15 11 15H21C21.55 15 22 15.45 22 16C22 16.55 21.55 17 21 17ZM15 23C15 22.45 14.55 22 14 22H10C6.69 22 4 19.31 4 16C4 12.69 6.69 10 10 10H14C14.55 10 15 9.55 15 9C15 8.45 14.55 8 14 8H10C5.59 8 2 11.59 2 16C2 20.41 5.59 24 10 24H14C14.55 24 15 23.55 15 23ZM30 16C30 11.59 26.41 8 22 8H18C17.45 8 17 8.45 17 9C17 9.55 17.45 10 18 10H22C25.31 10 28 12.69 28 16C28 19.31 25.31 22 22 22H18C17.45 22 17 22.45 17 23C17 23.55 17.45 24 18 24H22C26.41 24 30 20.41 30 16Z" fill="#024588"/>
</svg>
