<svg width="32" height="32" viewBox="0 0 32 32" fill="none" xmlns="http://www.w3.org/2000/svg">
<path d="M20.0296 27.98C17.4296 27.98 14.8096 27.05 12.6996 25.18C12.6096 25.1 12.4796 24.99 12.3296 24.87C11.4796 24.17 10.6496 23.43 9.85964 22.67L9.32964 22.13C8.54964 21.33 7.81964 20.5 7.12964 19.65C7.00964 19.5 6.89964 19.38 6.81964 19.28C2.99964 14.98 3.10964 8.49004 7.05964 4.50004C7.42964 4.13004 7.91964 3.92004 8.43964 3.92004C8.95964 3.92004 9.44964 4.12004 9.80964 4.49004L12.7596 7.44004C13.8596 8.54004 13.8796 10.13 12.8296 11.25L11.5296 13.17C11.1996 13.8 11.2996 13.95 11.6196 14.28C11.6496 14.31 11.6696 14.33 11.6896 14.36C12.5896 15.49 13.5696 16.57 14.6096 17.58C14.6396 17.61 14.6696 17.64 14.6896 17.67C14.6896 17.67 14.6996 17.68 14.7096 17.69C15.7196 18.72 16.8096 19.71 17.9396 20.61C17.9696 20.63 17.9996 20.66 18.0196 20.68C18.3396 21 18.5496 21.06 18.6296 21.08C18.6796 21.08 18.7596 21.1 18.9296 20.93L20.6396 19.3C21.6896 18.25 23.6096 18.23 24.6996 19.32L27.4696 22.16C27.8296 22.52 28.0296 23.01 28.0296 23.53C28.0296 24.05 27.8196 24.54 27.4596 24.9C25.4196 26.93 22.7296 27.94 19.9996 27.94L20.0296 27.98ZM8.40964 5.92004C5.26964 9.16004 5.19964 14.45 8.31964 17.96C8.41964 18.07 8.53964 18.22 8.67964 18.39C9.32964 19.19 10.0296 19.98 10.7596 20.73L11.2696 21.25C11.9996 21.95 12.7896 22.66 13.5996 23.31C13.7696 23.45 13.9196 23.57 14.0296 23.67C17.5496 26.8 22.8396 26.72 26.0696 23.51L23.3096 20.74C22.9996 20.43 22.3996 20.42 22.0696 20.74L20.3596 22.37C19.8096 22.92 19.0896 23.18 18.3496 23.06C17.7696 22.97 17.2096 22.66 16.6796 22.14C15.5096 21.2 14.3796 20.18 13.3196 19.1C13.2896 19.07 13.2696 19.05 13.2496 19.02C12.1696 17.96 11.1496 16.83 10.2096 15.66C8.92964 14.34 9.37964 13.06 9.81964 12.21C9.83964 12.18 9.85964 12.15 9.87964 12.12L11.2596 10.08C11.2996 10.03 11.3396 9.98004 11.3796 9.93004C11.7296 9.58004 11.7296 9.22004 11.3796 8.87004L8.41964 5.91004L8.40964 5.92004Z" fill="#024588"/>
</svg>
