<svg width="32" height="32" viewBox="0 0 32 32" fill="none" xmlns="http://www.w3.org/2000/svg">
<path d="M27.49 26.08L22.62 21.21C24.12 19.39 25.03 17.06 25.03 14.52C25.03 8.72 20.31 4 14.51 4C8.71 4 4 8.72 4 14.52C4 20.32 8.72 25.04 14.52 25.04C17.06 25.04 19.39 24.13 21.21 22.63L26.08 27.5C26.28 27.7 26.53 27.79 26.79 27.79C27.05 27.79 27.3 27.69 27.5 27.5C27.89 27.11 27.89 26.48 27.5 26.09L27.49 26.08ZM6 14.52C6 9.82 9.82 6 14.52 6C19.22 6 23.04 9.82 23.04 14.52C23.04 19.22 19.22 23.04 14.52 23.04C9.82 23.04 6 19.22 6 14.52Z" fill="#024588"/>
</svg>
