<svg width="32" height="32" viewBox="0 0 32 32" fill="none" xmlns="http://www.w3.org/2000/svg">
<path d="M27 10.0098H5C4.45 10.0098 4 9.55977 4 9.00977C4 8.45977 4.45 8.00977 5 8.00977H27C27.55 8.00977 28 8.45977 28 9.00977C28 9.55977 27.55 10.0098 27 10.0098ZM28 15.9998C28 15.4498 27.55 14.9998 27 14.9998H5C4.45 14.9998 4 15.4498 4 15.9998C4 16.5498 4.45 16.9998 5 16.9998H27C27.55 16.9998 28 16.5498 28 15.9998ZM28 22.9998C28 22.4498 27.55 21.9998 27 21.9998H5C4.45 21.9998 4 22.4498 4 22.9998C4 23.5498 4.45 23.9998 5 23.9998H27C27.55 23.9998 28 23.5498 28 22.9998Z" fill="#024588"/>
</svg>
