<svg width="32" height="32" viewBox="0 0 32 32" fill="none" xmlns="http://www.w3.org/2000/svg">
<path d="M16.0202 27.9999C15.6102 27.9999 15.2002 27.9799 14.7902 27.9399C8.86019 27.3599 4.22019 22.4199 4.01019 16.4399C3.85019 12.1399 6.03019 8.04988 9.69019 5.78988C12.0102 4.43988 13.3302 4.19988 14.8302 4.01988C15.6002 3.92988 16.3202 4.26988 16.7402 4.91988C17.1602 5.57988 17.1702 6.39988 16.7502 7.06988C16.2302 7.89988 15.1302 10.1099 16.0102 12.5499C16.5802 14.1299 17.8602 15.4099 19.4402 15.9899C21.0902 16.5899 23.1502 16.3099 24.9502 15.2299C25.6402 14.8199 26.4702 14.8399 27.1302 15.2799C27.7702 15.7099 28.1002 16.4599 27.9802 17.2299C27.7802 18.5099 27.2602 20.4399 26.3802 22.0399C24.3402 25.7499 20.3702 28.0099 16.0302 28.0099L16.0202 27.9999ZM15.0402 6.00988C13.7202 6.16988 12.6902 6.35988 10.7102 7.50988C7.68019 9.38988 5.87019 12.7899 6.00019 16.3799C6.18019 21.2799 10.1202 25.4799 14.9802 25.9599C18.9902 26.3499 22.7702 24.4399 24.6202 21.0799C25.3702 19.7099 25.8302 17.9899 26.0002 16.9299L25.9802 16.9499C23.6602 18.3399 20.9602 18.6799 18.7502 17.8699C16.6302 17.0899 14.9002 15.3599 14.1302 13.2299C13.2902 10.9299 13.6302 8.29988 15.0502 6.00988H15.0402Z" fill="#024588"/>
</svg>
