<svg width="32" height="32" viewBox="0 0 32 32" fill="none" xmlns="http://www.w3.org/2000/svg">
<path d="M16 23C12.14 23 9 19.86 9 16C9 12.14 12.14 9 16 9C19.86 9 23 12.14 23 16C23 19.86 19.86 23 16 23ZM16 11C13.24 11 11 13.24 11 16C11 18.76 13.24 21 16 21C18.76 21 21 18.76 21 16C21 13.24 18.76 11 16 11ZM17 6V3C17 2.45 16.55 2 16 2C15.45 2 15 2.45 15 3V6C15 6.55 15.45 7 16 7C16.55 7 17 6.55 17 6ZM9.64 9.64C10.03 9.25 10.03 8.62 9.64 8.23L7.52 6.11C7.13 5.72 6.5 5.72 6.11 6.11C5.72 6.5 5.72 7.13 6.11 7.52L8.23 9.64C8.43 9.84 8.68 9.93 8.94 9.93C9.2 9.93 9.45 9.83 9.65 9.64H9.64ZM7 16C7 15.45 6.55 15 6 15H3C2.45 15 2 15.45 2 16C2 16.55 2.45 17 3 17H6C6.55 17 7 16.55 7 16ZM7.51 25.9L9.63 23.78C10.02 23.39 10.02 22.76 9.63 22.37C9.24 21.98 8.61 21.98 8.22 22.37L6.1 24.49C5.71 24.88 5.71 25.51 6.1 25.9C6.3 26.1 6.55 26.19 6.81 26.19C7.07 26.19 7.32 26.09 7.52 25.9H7.51ZM17 29V26C17 25.45 16.55 25 16 25C15.45 25 15 25.45 15 26V29C15 29.55 15.45 30 16 30C16.55 30 17 29.55 17 29ZM25.9 25.9C26.29 25.51 26.29 24.88 25.9 24.49L23.78 22.37C23.39 21.98 22.76 21.98 22.37 22.37C21.98 22.76 21.98 23.39 22.37 23.78L24.49 25.9C24.69 26.1 24.94 26.19 25.2 26.19C25.46 26.19 25.71 26.09 25.91 25.9H25.9ZM30 16C30 15.45 29.55 15 29 15H26C25.45 15 25 15.45 25 16C25 16.55 25.45 17 26 17H29C29.55 17 30 16.55 30 16ZM23.78 9.64L25.9 7.52C26.29 7.13 26.29 6.5 25.9 6.11C25.51 5.72 24.88 5.72 24.49 6.11L22.37 8.23C21.98 8.62 21.98 9.25 22.37 9.64C22.57 9.84 22.82 9.93 23.08 9.93C23.34 9.93 23.59 9.83 23.79 9.64H23.78Z" fill="#024588"/>
</svg>
