<svg width="32" height="32" viewBox="0 0 32 32" fill="none" xmlns="http://www.w3.org/2000/svg">
<path d="M29.6498 17.78L27.5598 15.98C28.1698 15.28 28.7298 14.51 29.2498 13.66C29.5298 13.21 29.7298 12.74 29.8598 12.27C30.0098 11.74 29.6898 11.19 29.1598 11.04C28.6298 10.89 28.0798 11.21 27.9298 11.74C27.8498 12.03 27.7198 12.33 27.5398 12.62C24.9598 16.86 21.0698 19 15.9898 19C10.9098 19 7.02983 16.85 4.44983 12.62C4.26983 12.32 4.13983 12.03 4.05983 11.74C3.90983 11.21 3.36983 10.89 2.82983 11.04C2.29983 11.19 1.97983 11.73 2.12983 12.27C2.25983 12.74 2.45983 13.21 2.73983 13.66C3.25983 14.51 3.81983 15.28 4.42983 15.98L2.33983 17.78C1.91983 18.14 1.86983 18.77 2.22983 19.19C2.42983 19.42 2.70983 19.54 2.98983 19.54C3.21983 19.54 3.44983 19.46 3.63983 19.3L5.82983 17.41C7.27983 18.69 8.92983 19.63 10.7698 20.23L9.19983 23.54C8.95983 24.04 9.17983 24.64 9.67983 24.87C9.81983 24.94 9.95983 24.97 10.1098 24.97C10.4898 24.97 10.8398 24.76 11.0198 24.4L12.7598 20.73C13.7898 20.92 14.8598 21.01 15.9898 21.01C17.1198 21.01 18.1998 20.91 19.2198 20.73L20.9598 24.4C21.1298 24.76 21.4898 24.97 21.8698 24.97C22.0098 24.97 22.1598 24.94 22.2998 24.87C22.7998 24.63 23.0098 24.04 22.7798 23.54L21.2098 20.23C23.0598 19.63 24.7098 18.69 26.1498 17.41L28.3398 19.3C28.5298 19.46 28.7598 19.54 28.9898 19.54C29.2698 19.54 29.5498 19.42 29.7498 19.19C30.1098 18.77 30.0598 18.14 29.6398 17.78H29.6498Z" fill="#024588"/>
</svg>
