<svg width="32" height="32" viewBox="0 0 32 32" fill="none" xmlns="http://www.w3.org/2000/svg">
<path d="M27.0002 21H25.9402C25.9802 20.89 26.0102 20.76 26.0002 20.64V20.34C25.9702 19.44 25.9402 18.26 25.9402 16.97C25.9402 4.99 21.2402 4 16.0002 4C10.7602 4 6.05023 4.99 6.05023 16.97C6.05023 18.27 6.02023 19.46 5.99023 20.36V20.74C5.98023 20.83 6.00023 20.92 6.03023 21H4.99023C4.44023 21 3.99023 21.45 3.99023 22C3.99023 22.55 4.44023 23 4.99023 23H10.9902C10.9902 25.76 13.2302 28 15.9902 28C18.7502 28 20.9902 25.76 20.9902 23H26.9902C27.5402 23 27.9902 22.55 27.9902 22C27.9902 21.45 27.5402 21 26.9902 21H27.0002ZM16.0002 26C14.3502 26 13.0002 24.65 13.0002 23H19.0002C19.0002 24.65 17.6502 26 16.0002 26ZM7.94023 21C7.96023 20.93 7.99023 20.86 7.99023 20.79V20.41C8.02023 19.49 8.06024 18.28 8.06024 16.96C8.06024 5.99 11.9202 5.99 16.0102 5.99C20.1002 5.99 23.9502 5.99 23.9502 16.96C23.9502 18.27 23.9802 19.47 24.0102 20.38V20.68C24.0202 20.79 24.0502 20.89 24.0902 20.99H7.94023V21Z" fill="#024588"/>
</svg>
