<svg width="32" height="32" viewBox="0 0 32 32" fill="none" xmlns="http://www.w3.org/2000/svg">
<path d="M4.67969 9.96999C4.67969 10.52 4.22969 10.97 3.67969 10.97C3.12969 10.97 2.67969 10.52 2.67969 9.96999C2.67969 7.38999 3.91969 4.75999 5.83969 3.27999C6.27969 2.93999 6.90969 3.01999 7.23969 3.45999C7.56969 3.89999 7.49969 4.51999 7.05969 4.85999C5.62969 5.95999 4.66969 8.01999 4.66969 9.96999H4.67969ZM28.9197 19.82C29.0197 20.36 28.6497 20.88 28.1097 20.98L21.8397 22.08C21.8397 22.08 21.8597 22.11 21.8597 22.13C22.0897 23.45 21.7997 24.77 21.0297 25.87C20.2597 26.96 19.1197 27.69 17.7997 27.93C17.5097 27.98 17.2197 28.01 16.9297 28.01C14.5497 28.01 12.4397 26.3 12.0097 23.88C12.0097 23.86 12.0097 23.85 12.0097 23.83L7.16969 24.68C7.10969 24.69 7.04969 24.7 6.99969 24.7C6.51969 24.7 6.09969 24.36 6.01969 23.87C5.91969 23.33 6.28969 22.81 6.82969 22.71L7.95969 22.51C7.95969 22.51 7.92969 22.45 7.92969 22.41L7.86969 22.02C7.73969 21.13 7.55969 19.96 7.33969 18.68C5.23969 6.74999 9.50969 4.97999 14.4697 4.09999L14.9097 4.02999C15.4597 3.93999 15.9997 4.31999 16.0897 4.85999C16.1697 5.40999 15.8397 5.90999 15.2897 5.98999L14.8197 6.06999C10.9897 6.74999 7.37969 7.37999 9.30969 18.33C9.53969 19.62 9.71969 20.81 9.84969 21.72L9.90969 22.11C9.90969 22.11 9.90969 22.15 9.90969 22.17L24.8297 19.54C24.6497 18.63 24.2497 16.66 24.0597 15.58C23.9397 14.92 23.8897 14.61 23.7497 14.02C23.6297 13.48 23.9597 12.95 24.4997 12.82C25.0297 12.7 25.5697 13.03 25.6997 13.57C25.8397 14.19 25.8997 14.52 26.0297 15.23C26.2197 16.31 26.6197 18.31 26.7997 19.19L27.7697 19.02C28.3097 18.92 28.8297 19.29 28.9297 19.83L28.9197 19.82ZM19.8897 22.48C19.8897 22.48 19.8897 22.45 19.8897 22.43L13.9597 23.48C13.9597 23.48 13.9797 23.51 13.9797 23.53C14.2697 25.16 15.8297 26.25 17.4597 25.96C18.2497 25.82 18.9397 25.38 19.3997 24.73C19.8597 24.07 20.0397 23.28 19.8997 22.49L19.8897 22.48ZM22.6597 10.94C24.7497 10.57 26.1497 8.56999 25.7797 6.47999C25.4097 4.38999 23.4097 2.98999 21.3197 3.35999C19.2297 3.72999 17.8297 5.72999 18.1997 7.81999C18.5697 9.90999 20.5697 11.31 22.6597 10.94Z" fill="#024588"/>
</svg>
