<svg width="32" height="32" viewBox="0 0 32 32" fill="none" xmlns="http://www.w3.org/2000/svg">
<path d="M16 2C8.28 2 2 8.28 2 16C2 23.72 8.28 30 16 30C23.72 30 30 23.72 30 16C30 8.28 23.72 2 16 2ZM16 28C9.38 28 4 22.62 4 16C4 9.38 9.38 4 16 4C22.62 4 28 9.38 28 16C28 22.62 22.62 28 16 28ZM21 19.5C21 21.67 19.28 23.49 17 23.91V25C17 25.55 16.55 26 16 26C15.45 26 15 25.55 15 25V23.9C12.96 23.53 11.32 22.05 11.01 20.16C10.92 19.62 11.29 19.1 11.84 19.01C12.39 18.92 12.9 19.29 12.99 19.84C13.19 21.07 14.49 22 16 22C17.65 22 19 20.88 19 19.5C19 17.89 17.33 17.15 15.89 16.99C13.01 16.68 11 14.84 11 12.5C11 10.33 12.72 8.51 15 8.09V7C15 6.45 15.45 6 16 6C16.55 6 17 6.45 17 7V8.1C19.04 8.47 20.68 9.95 20.99 11.84C21.08 12.38 20.71 12.9 20.16 12.99C19.62 13.08 19.1 12.71 19.01 12.16C18.81 10.95 17.49 10 16 10C14.35 10 13 11.12 13 12.5C13 13.99 14.61 14.85 16.11 15.01C19.04 15.32 21 17.13 21 19.5Z" fill="#024588"/>
</svg>
