<svg width="32" height="32" viewBox="0 0 32 32" fill="none" xmlns="http://www.w3.org/2000/svg">
<path d="M29.44 10.12C29.01 7.73 26.94 6 24.51 6H7.49C5.07 6 2.99 7.74 2.56 10.12C2.22 12 2 13.95 2 16C2 18.05 2.22 20 2.56 21.88C2.99 24.27 5.06 26 7.49 26H24.51C26.93 26 29.01 24.26 29.44 21.88C29.78 20 30 18.05 30 16C30 13.95 29.78 12 29.44 10.12ZM7.49 8H24.51C25.97 8 27.21 9.04 27.47 10.48C27.57 11.02 27.65 11.54 27.72 12.06C27.65 12.06 27.57 12.04 27.5 12.04H4.29C4.36 11.53 4.44 11.02 4.53 10.49C4.79 9.05 6.03 8.01 7.49 8.01V8ZM27.47 21.52C27.21 22.96 25.97 24 24.51 24H7.49C6.03 24 4.79 22.96 4.53 21.52C4.17 19.54 4 17.73 4 16C4.09 16.01 4.17 16.03 4.26 16.03H27.49C27.66 16.03 27.83 16 27.99 15.96C27.99 15.97 27.99 15.99 27.99 16C27.99 17.73 27.82 19.54 27.46 21.52H27.47Z" fill="#024588"/>
</svg>
