<svg width="32" height="32" viewBox="0 0 32 32" fill="none" xmlns="http://www.w3.org/2000/svg">
<path d="M16 20.5C15.45 20.5 15 20.05 15 19.5C15 17.79 16.25 16.9 17.36 16.11C18.51 15.29 19.5 14.58 19.5 13C19.5 11.07 17.93 9.5 16 9.5C14.21 9.5 12.72 10.84 12.52 12.61C12.46 13.16 11.99 13.55 11.42 13.49C10.87 13.43 10.48 12.93 10.54 12.39C10.85 9.6 13.2 7.5 16.01 7.5C19.04 7.5 21.51 9.97 21.51 13C21.51 15.62 19.78 16.84 18.52 17.74C17.55 18.43 17.01 18.85 17.01 19.5C17.01 20.05 16.56 20.5 16.01 20.5H16ZM30 16C30 8.28 23.72 2 16 2C8.28 2 2 8.28 2 16C2 23.72 8.28 30 16 30C23.72 30 30 23.72 30 16ZM28 16C28 22.62 22.62 28 16 28C9.38 28 4 22.62 4 16C4 9.38 9.38 4 16 4C22.62 4 28 9.38 28 16ZM16 24.5C16.69 24.5 17.25 23.94 17.25 23.25C17.25 22.56 16.69 22 16 22C15.31 22 14.75 22.56 14.75 23.25C14.75 23.94 15.31 24.5 16 24.5Z" fill="#024588"/>
</svg>
