<svg width="32" height="32" viewBox="0 0 32 32" fill="none" xmlns="http://www.w3.org/2000/svg">
<path d="M27.4298 15.71C26.9998 13.56 24.9298 12 22.4998 12H21.9998V8C21.9998 4.69 19.3098 2 15.9998 2C12.6898 2 9.99977 4.69 9.99977 8V12H9.49977C7.07977 12 4.99977 13.56 4.56977 15.71C4.22977 17.4 4.00977 19.15 4.00977 21C4.00977 22.85 4.22977 24.6 4.56977 26.29C4.99977 28.44 7.06977 30 9.49977 30H22.4998C24.9198 30 26.9998 28.44 27.4298 26.29C27.7698 24.6 27.9898 22.85 27.9898 21C27.9898 19.15 27.7698 17.4 27.4298 15.71ZM11.9998 12V8C11.9998 5.79 13.7898 4 15.9998 4C18.2098 4 19.9998 5.79 19.9998 8V12H11.9998ZM25.4698 25.9C25.2298 27.1 23.9598 28 22.4998 28H9.49977C8.04977 28 6.76977 27.1 6.52977 25.9C6.17977 24.14 6.00977 22.54 6.00977 21C6.00977 19.46 6.17977 17.86 6.52977 16.1C6.76977 14.9 8.03977 14 9.49977 14H22.4998C23.9498 14 25.2298 14.9 25.4698 16.1C25.8198 17.86 25.9898 19.46 25.9898 21C25.9898 22.54 25.8198 24.14 25.4698 25.9ZM17.9998 19C17.9998 19.74 17.5998 20.37 16.9998 20.72V24C16.9998 24.55 16.5498 25 15.9998 25C15.4498 25 14.9998 24.55 14.9998 24V20.73C14.3998 20.38 13.9998 19.75 13.9998 19C13.9998 17.9 14.8998 17 15.9998 17C17.0998 17 17.9998 17.9 17.9998 19Z" fill="#024588"/>
</svg>
