<svg width="32" height="32" viewBox="0 0 32 32" fill="none" xmlns="http://www.w3.org/2000/svg">
<path d="M27.02 3C26.47 3 26.02 3.45 26.02 4V9.4C23.82 6.07 20.09 4 16 4C9.38 4 4 9.38 4 16C4 22.62 9.38 28 16 28C19.21 28 22.22 26.75 24.48 24.49C25.66 23.31 26.57 21.92 27.18 20.37C27.38 19.86 27.13 19.28 26.61 19.07C26.09 18.87 25.52 19.12 25.31 19.64C24.8 20.93 24.05 22.09 23.06 23.08C21.17 24.97 18.66 26.01 15.99 26.01C10.48 26.01 5.99 21.52 5.99 16.01C5.99 10.5 10.48 6.01 15.99 6.01C19.59 6.01 22.86 7.94 24.63 11H19.01C18.46 11 18.01 11.45 18.01 12.01C18.01 12.56 18.46 13.01 19.01 13.01H26.06C26.06 13.01 26.11 12.99 26.14 12.99C26.3 13.01 26.46 13 26.62 12.94C26.67 12.92 26.71 12.88 26.76 12.85C27.48 12.56 27.96 11.89 28 11.02L28.02 4.01C28.02 3.46 27.57 3.01 27.02 3.01V3Z" fill="#024588"/>
</svg>
