<svg width="32" height="32" viewBox="0 0 32 32" fill="none" xmlns="http://www.w3.org/2000/svg">
<path d="M8 11.9699H25.04L20.31 7.14994C19.92 6.75994 19.93 6.11994 20.32 5.73994C20.71 5.34994 21.35 5.35994 21.73 5.74994L27.39 11.5199C27.78 11.9499 27.97 12.4499 27.98 12.9499C27.98 12.9499 27.98 12.9599 27.98 12.9699C27.98 13.5099 27.78 14.0599 27.34 14.5299L21.67 20.2399C21.47 20.4399 21.22 20.5299 20.96 20.5299C20.7 20.5299 20.45 20.4299 20.25 20.2399C19.86 19.8499 19.86 19.2199 20.25 18.8299L25.08 13.9699H8C6.35 13.9699 5 15.3199 5 16.9699V24.9999C5 25.5499 4.55 25.9999 4 25.9999C3.45 25.9999 3 25.5499 3 24.9999V16.9699C3 14.2099 5.24 11.9699 8 11.9699Z" fill="#024588"/>
</svg>
