<svg width="32" height="32" viewBox="0 0 32 32" fill="none" xmlns="http://www.w3.org/2000/svg">
<path d="M13.0897 24H8.16969C7.64969 24 7.14969 23.87 6.69969 23.67L10.2297 14.32C10.5197 13.53 11.2697 13 12.1097 13H27.0097C27.3697 13 27.6897 13.19 27.8797 13.5C27.9697 13.65 28.0197 13.83 28.0197 14C28.0197 14.55 28.4697 15 29.0197 15C29.5697 15 30.0197 14.55 30.0197 14C30.0197 13.48 29.8797 12.96 29.6097 12.51C29.0897 11.62 28.1797 11.08 27.1597 11.03C27.1197 10.83 27.0897 10.64 27.0497 10.45L26.9697 10.04C26.5197 7.71001 24.4497 6.01001 22.0597 6.01001H15.6697L15.4797 5.57001C14.9997 4.61001 14.0297 4.01001 12.9597 4.01001H8.16969C5.47969 4.01001 3.17969 5.93001 2.70969 8.58001C2.37969 10.39 2.17969 14.07 2.17969 15.92C2.17969 17.67 2.34969 19.47 2.70969 21.44C3.18969 24.09 5.47969 26.01 8.16969 26.01H13.0897C13.6397 26.01 14.0897 25.56 14.0897 25.01C14.0897 24.46 13.6397 24.01 13.0897 24.01V24ZM4.66969 8.93001C4.96969 7.23001 6.43969 6.00001 8.15969 6.00001H12.9497C13.2597 6.00001 13.5397 6.17001 13.6497 6.39001L14.0697 7.39001C14.2297 7.76001 14.5897 8.00001 14.9897 8.00001H22.0397C23.4797 8.00001 24.7097 9.01001 24.9897 10.41L25.0697 10.83C25.0797 10.89 25.0897 10.94 25.0997 11H12.0897C10.4197 11 8.89969 12.06 8.33969 13.62L5.08969 22.23C4.88969 21.88 4.73969 21.49 4.65969 21.07C4.32969 19.22 4.15969 17.53 4.15969 15.91C4.15969 13.95 4.37969 10.47 4.65969 8.93001H4.66969ZM22.9997 15C19.1397 15 15.9997 18.14 15.9997 22C15.9997 25.86 19.1397 29 22.9997 29C26.8597 29 29.9997 25.86 29.9997 22C29.9997 18.14 26.8597 15 22.9997 15ZM22.9997 27C20.2397 27 17.9997 24.76 17.9997 22C17.9997 19.24 20.2397 17 22.9997 17C25.7597 17 27.9997 19.24 27.9997 22C27.9997 24.76 25.7597 27 22.9997 27ZM25.3297 22.92C25.7197 23.31 25.7197 23.94 25.3297 24.33C25.1297 24.53 24.8797 24.62 24.6197 24.62C24.3597 24.62 24.1097 24.52 23.9097 24.33L22.2797 22.7C22.1897 22.61 22.1097 22.5 22.0597 22.37C22.0097 22.25 21.9797 22.12 21.9797 21.99V19.81C21.9797 19.26 22.4297 18.81 22.9797 18.81C23.5297 18.81 23.9797 19.26 23.9797 19.81V21.58L25.3197 22.92H25.3297Z" fill="#024588"/>
</svg>
