<svg width="32" height="32" viewBox="0 0 32 32" fill="none" xmlns="http://www.w3.org/2000/svg">
<path d="M29.64 23.27L29.6 23.14C29.34 22.29 28.57 21.73 27.69 21.73H27.01V5.81001C27.01 5.71001 26.98 5.62001 26.95 5.52001C26.67 3.51001 24.96 1.95001 22.87 1.95001C22.85 1.95001 22.84 1.95001 22.82 1.95001C22.8 1.95001 22.79 1.95001 22.77 1.95001H6.72C6.65 1.95001 6.59 1.98001 6.53 1.99001C6.4 1.98001 6.28 1.95001 6.14 1.95001C3.85 1.96001 2 3.81001 2 6.09001C2 8.68001 2.84 10 4.48 10H8.26V25.86C8.26 27.07 8.79 28.22 9.71 29.01C10.46 29.65 11.42 30 12.4 30C12.54 30 12.67 29.98 12.81 29.97C12.87 29.97 12.92 30 12.97 30H25.86C25.86 30 25.92 29.98 25.95 29.98C25.99 29.98 26.02 30 26.06 30C28.26 29.88 29.98 27.99 29.98 25.69C29.98 24.38 29.81 23.84 29.63 23.28L29.64 23.27ZM4.48 8.00001C4.02 8.00001 4 6.42001 4 6.10001C4 4.92001 4.96 3.97001 6.13 3.97001C7.3 3.97001 8.2 4.87001 8.25 6.00001C8.25 6.00001 8.25 6.01001 8.25 6.02001V8.01001H4.47L4.48 8.00001ZM10.26 25.87V9.07001C10.26 9.07001 10.27 9.03001 10.27 9.00001C10.27 8.97001 10.26 8.96001 10.26 8.93001V6.16001C10.26 6.16001 10.27 6.12001 10.27 6.09001C10.27 5.31001 10.04 4.58001 9.66 3.96001H22.76C22.76 3.96001 22.79 3.96001 22.81 3.96001C22.83 3.96001 22.84 3.96001 22.86 3.96001C24.04 3.96001 24.99 4.92001 24.99 6.09001V21.72H16.31C15.69 21.72 15.11 22 14.73 22.5C14.35 23 14.22 23.63 14.38 24.24C14.45 24.52 14.52 24.89 14.52 25.7C14.52 26.83 13.75 27.8 12.74 27.96C12.11 28.06 11.49 27.89 11 27.48C10.52 27.07 10.25 26.48 10.25 25.86L10.26 25.87ZM25.96 28C25.96 28 25.93 28.01 25.91 28.01C25.89 28.01 25.88 28 25.86 28H15.88C16.29 27.33 16.53 26.55 16.53 25.71C16.53 24.87 16.47 24.3 16.32 23.73H27.68L27.72 23.88C27.87 24.37 27.97 24.69 27.97 25.69C27.97 26.9 27.06 27.94 25.95 28H25.96ZM13 8.00001C13 7.45001 13.45 7.00001 14 7.00001H22C22.55 7.00001 23 7.45001 23 8.00001C23 8.55001 22.55 9.00001 22 9.00001H14C13.45 9.00001 13 8.55001 13 8.00001ZM13 13C13 12.45 13.45 12 14 12H22C22.55 12 23 12.45 23 13C23 13.55 22.55 14 22 14H14C13.45 14 13 13.55 13 13ZM13 18C13 17.45 13.45 17 14 17H22C22.55 17 23 17.45 23 18C23 18.55 22.55 19 22 19H14C13.45 19 13 18.55 13 18Z" fill="#024588"/>
</svg>
