<svg width="32" height="32" viewBox="0 0 32 32" fill="none" xmlns="http://www.w3.org/2000/svg">
<path d="M10.7299 18.8299C11.1199 19.2199 11.1199 19.8499 10.7299 20.2399C10.5299 20.4299 10.2799 20.5299 10.0199 20.5299C9.75987 20.5299 9.50987 20.4299 9.30987 20.2399L3.63987 14.5299C2.79987 13.6099 2.78987 12.4099 3.59987 11.5099L9.25987 5.73993C9.64987 5.34993 10.2799 5.33993 10.6699 5.72993C11.0599 6.11993 11.0699 6.74993 10.6799 7.13993L5.03987 12.8799C4.94987 12.9799 4.94987 13.0199 5.06987 13.1499L10.7099 18.8299H10.7299ZM22.9999 11.9699H12.4399L17.2599 7.14993C17.6499 6.75993 17.6499 6.12993 17.2599 5.73993C16.8699 5.34993 16.2399 5.34993 15.8499 5.73993L9.29987 12.2899C9.10987 12.4799 9.00987 12.7299 9.00987 12.9999C9.00987 13.2699 9.11987 13.5199 9.30987 13.7099L15.9099 20.2499C16.1099 20.4399 16.3599 20.5399 16.6099 20.5399C16.8599 20.5399 17.1199 20.4399 17.3199 20.2399C17.7099 19.8499 17.7099 19.2099 17.3199 18.8299L12.4199 13.9699H23.0199C24.6699 13.9699 26.0199 15.3199 26.0199 16.9699V24.9999C26.0199 25.5499 26.4699 25.9999 27.0199 25.9999C27.5699 25.9999 28.0199 25.5499 28.0199 24.9999V16.9699C28.0199 14.2099 25.7799 11.9699 23.0199 11.9699H22.9999Z" fill="#024588"/>
</svg>
