<svg width="32" height="32" viewBox="0 0 32 32" fill="none" xmlns="http://www.w3.org/2000/svg">
<path d="M23 11.9699H5.96002L10.69 7.14994C11.08 6.75994 11.07 6.11994 10.68 5.73994C10.29 5.34994 9.65002 5.35994 9.27002 5.74994L3.61002 11.5199C3.22002 11.9499 3.03002 12.4499 3.02002 12.9499C3.02002 12.9499 3.02002 12.9599 3.02002 12.9699C3.02002 13.5099 3.22002 14.0599 3.66002 14.5299L9.33002 20.2399C9.53002 20.4399 9.78002 20.5299 10.04 20.5299C10.3 20.5299 10.55 20.4299 10.75 20.2399C11.14 19.8499 11.14 19.2199 10.75 18.8299L5.92002 13.9699H23.02C24.67 13.9699 26.02 15.3199 26.02 16.9699V24.9999C26.02 25.5499 26.47 25.9999 27.02 25.9999C27.57 25.9999 28.02 25.5499 28.02 24.9999V16.9699C28.02 14.2099 25.78 11.9699 23.02 11.9699H23Z" fill="#024588"/>
</svg>
