<svg width="32" height="32" viewBox="0 0 32 32" fill="none" xmlns="http://www.w3.org/2000/svg">
<path d="M14.0002 27C14.0002 27.55 13.5502 28 13.0002 28H9.59023C7.26023 28 5.27023 26.44 4.74023 24.22C4.25023 22.14 3.99023 19.37 3.99023 16C3.99023 12.63 4.24023 9.87 4.74023 7.78C5.27023 5.55 7.26023 4 9.59023 4H13.0002C13.5502 4 14.0002 4.45 14.0002 5C14.0002 5.55 13.5502 6 13.0002 6H9.59023C8.19023 6 7.00023 6.92 6.68023 8.25C6.22023 10.18 5.99023 12.79 5.99023 16C5.99023 19.21 6.22023 21.82 6.68023 23.75C6.99023 25.07 8.19023 26 9.59023 26H13.0002C13.5502 26 14.0002 26.45 14.0002 27ZM28.0002 16.02C28.0002 16.02 28.0002 16 28.0002 15.99C28.0002 15.5 27.8102 15 27.4202 14.58L22.6102 9.74C22.2202 9.35 21.5902 9.35 21.2002 9.74C20.8102 10.13 20.8102 10.76 21.2002 11.15L25.0502 15.02H12.6102C12.0602 15.02 11.6102 15.47 11.6102 16.02C11.6102 16.57 12.0602 17.02 12.6102 17.02H24.9802L21.2302 20.84C20.8402 21.23 20.8502 21.87 21.2402 22.25C21.4302 22.44 21.6902 22.54 21.9402 22.54C22.1902 22.54 22.4602 22.44 22.6502 22.24L27.4502 17.34C27.7802 16.97 27.9502 16.54 27.9802 16.1C27.9802 16.07 28.0002 16.04 28.0002 16.01V16.02Z" fill="#024588"/>
</svg>
