<svg width="32" height="32" viewBox="0 0 32 32" fill="none" xmlns="http://www.w3.org/2000/svg">
<path d="M30.01 5.55L29.99 10.19C29.94 11.22 29.22 11.94 28.24 11.99H23.55C23 11.99 22.55 11.54 22.55 10.99C22.55 10.44 23 9.99 23.55 9.99H26.42C24.29 6.32 20.31 3.99 16.03 3.99C9.41004 3.99 4.03004 9.37 4.03004 15.99C4.03004 22.61 9.41004 27.99 16.03 27.99C19.24 27.99 22.25 26.74 24.52 24.48C25.7 23.3 26.61 21.91 27.22 20.36C27.42 19.85 28 19.59 28.52 19.79C29.03 19.99 29.29 20.57 29.09 21.09C28.38 22.9 27.32 24.52 25.94 25.9C23.3 28.54 19.78 30 16.04 30C8.32004 30 2.04004 23.72 2.04004 16C2.04004 8.28 8.32004 2 16.04 2C20.93 2 25.48 4.61 28 8.74V5.54C28.01 4.99 28.46 4.54 29.01 4.54C29.56 4.54 30.01 4.99 30.01 5.54V5.55ZM16 25C16.55 25 17 24.55 17 24V23.12C19.03 22.71 20.56 21.07 20.56 19.12C20.56 16.95 18.77 15.3 16.11 15.01C14.83 14.87 13.45 14.15 13.45 12.89C13.45 11.73 14.6 10.78 16.01 10.78C17.28 10.78 18.41 11.58 18.58 12.61C18.67 13.15 19.18 13.52 19.73 13.44C20.27 13.35 20.64 12.84 20.56 12.29C20.28 10.6 18.83 9.26 17.02 8.9V8.01C17.02 7.46 16.57 7.01 16.02 7.01C15.47 7.01 15.02 7.46 15.02 8.01V8.9C12.99 9.31 11.46 10.95 11.46 12.9C11.46 15.04 13.29 16.73 15.91 17.01C17.14 17.14 18.57 17.77 18.57 19.13C18.57 20.29 17.42 21.24 16.01 21.24C14.74 21.24 13.61 20.44 13.44 19.41C13.35 18.87 12.84 18.49 12.29 18.58C11.75 18.67 11.38 19.18 11.46 19.73C11.74 21.43 13.19 22.76 15 23.12V24.01C15 24.56 15.45 25.01 16 25.01V25Z" fill="#024588"/>
</svg>
