<svg width="32" height="32" viewBox="0 0 32 32" fill="none" xmlns="http://www.w3.org/2000/svg">
<path d="M16 3C9.11 3 3.5 8.61 3.5 15.5C3.5 22.39 9.11 28 16 28C17.95 28 19.61 27.77 21.08 27.33L23.17 29.38C23.63 29.79 24.24 29.99 24.86 29.99C25.64 29.99 26.43 29.68 26.98 29.07C27.78 28.2 27.9 26.84 28.07 24.97L28.1 24.6C28.29 22.57 28.5 19.71 28.5 15.5C28.5 8.61 22.89 3 16 3ZM26.11 24.42L26.08 24.79C25.96 26.1 25.85 27.34 25.51 27.72C25.26 28 24.73 28.09 24.54 27.91L22.08 25.49C21.76 25.18 21.3 25.13 20.93 25.32C20.85 25.32 20.78 25.32 20.7 25.35C19.38 25.78 17.85 25.99 16.01 25.99C10.22 25.99 5.51 21.28 5.51 15.49C5.51 9.7 10.22 4.99 16.01 4.99C21.8 4.99 26.51 9.7 26.51 15.49C26.51 19.62 26.3 22.43 26.12 24.41L26.11 24.42ZM17 15.25V20.25C17 20.8 16.55 21.25 16 21.25C15.45 21.25 15 20.8 15 20.25V15.25C15 14.7 15.45 14.25 16 14.25C16.55 14.25 17 14.7 17 15.25ZM17.25 11.25C17.25 11.94 16.69 12.5 16 12.5C15.31 12.5 14.75 11.94 14.75 11.25C14.75 10.56 15.31 10 16 10C16.69 10 17.25 10.56 17.25 11.25Z" fill="#024588"/>
</svg>
