<svg width="32" height="32" viewBox="0 0 32 32" fill="none" xmlns="http://www.w3.org/2000/svg">
<path d="M16 3C9.11 3 3.5 8.61 3.5 15.5C3.5 22.39 9.11 28 16 28C17.95 28 19.61 27.77 21.08 27.32L23.17 29.37C23.63 29.78 24.24 29.99 24.86 29.99C25.64 29.99 26.43 29.68 26.98 29.07C27.78 28.2 27.9 26.84 28.07 24.97L28.1 24.6C28.29 22.57 28.5 19.7 28.5 15.5C28.5 8.61 22.89 3 16 3ZM26.11 24.42L26.08 24.79C25.96 26.1 25.85 27.34 25.51 27.72C25.26 28 24.73 28.08 24.54 27.91L22.08 25.49C21.76 25.18 21.3 25.13 20.93 25.32C20.85 25.32 20.77 25.32 20.7 25.35C19.38 25.78 17.84 25.99 16.01 25.99C10.22 25.99 5.51 21.28 5.51 15.49C5.51 9.7 10.21 5 16 5C21.79 5 26.5 9.71 26.5 15.5C26.5 19.62 26.29 22.43 26.11 24.42ZM20.68 12.68C20.68 14.91 19.22 15.95 18.16 16.71C17.33 17.3 17 17.58 17 18C17 18.55 16.55 19 16 19C15.45 19 15 18.55 15 18C15 16.51 16.11 15.72 17 15.08C18.04 14.34 18.68 13.83 18.68 12.68C18.68 11.2 17.48 10 16 10C14.63 10 13.48 11.02 13.33 12.38C13.27 12.93 12.77 13.33 12.23 13.26C11.68 13.2 11.29 12.7 11.35 12.16C11.61 9.79 13.61 8 16 8C18.58 8 20.68 10.1 20.68 12.68ZM17.25 21.75C17.25 22.44 16.69 23 16 23C15.31 23 14.75 22.44 14.75 21.75C14.75 21.06 15.31 20.5 16 20.5C16.69 20.5 17.25 21.06 17.25 21.75Z" fill="#024588"/>
</svg>
