<svg width="32" height="32" viewBox="0 0 32 32" fill="none" xmlns="http://www.w3.org/2000/svg">
<path d="M9.72002 10.81C9.33002 10.42 9.33002 9.79001 9.72002 9.40001L14.56 4.59001C14.98 4.21001 15.47 4.01001 15.97 4.01001C15.98 4.01001 15.99 4.01001 16.01 4.01001C16.04 4.01001 16.07 4.02001 16.1 4.03001C16.54 4.06001 16.97 4.23001 17.34 4.56001L22.24 9.36001C22.63 9.75001 22.64 10.38 22.25 10.77C21.86 11.16 21.23 11.17 20.84 10.78L17.02 7.03001V19C17.02 19.55 16.57 20 16.02 20C15.47 20 15.02 19.55 15.02 19V6.96001L11.15 10.81C10.95 11 10.7 11.1 10.44 11.1C10.18 11.1 9.93002 11 9.73002 10.81H9.72002ZM26.97 18C26.41 17.98 25.95 18.39 25.92 18.95C25.82 20.81 25.62 22.4 25.32 23.69C25 25.05 23.8 26.01 22.4 26.01H16H9.60002C8.20002 26.01 7.01002 25.09 6.69002 23.76C6.38002 22.46 6.17002 20.85 6.07002 18.95C6.04002 18.4 5.55002 17.98 5.02002 18.01C4.47002 18.04 4.05002 18.51 4.07002 19.06C4.18002 21.07 4.40002 22.81 4.74002 24.22C5.27002 26.45 7.26002 28 9.59002 28H15.99H22.39C24.73 28 26.73 26.41 27.26 24.14C27.59 22.74 27.8 21.03 27.91 19.06C27.94 18.51 27.52 18.04 26.96 18.01L26.97 18Z" fill="#024588"/>
</svg>
