<svg width="32" height="32" viewBox="0 0 32 32" fill="none" xmlns="http://www.w3.org/2000/svg">
<path d="M27.62 10.45C27.54 9.49999 27.12 8.61999 26.44 7.94999L21.7 3.29999C20.94 2.46999 19.87 1.98999 18.74 1.98999H18.02C18.02 1.98999 18.02 1.98999 18.01 1.98999C18 1.98999 18.01 1.98999 18 1.98999H9.67002C7.29002 1.98999 5.25002 3.65999 4.77002 5.98999C4.27002 8.36999 4.02002 11.34 4.02002 15.99C4.02002 20.64 4.28002 23.61 4.77002 25.99C5.26002 28.32 7.29002 29.99 9.67002 29.99H22.36C24.74 29.99 26.78 28.32 27.26 25.99C27.76 23.61 28.01 20.64 28.01 15.99C28.01 14.55 27.78 12.16 27.63 10.44L27.62 10.45ZM20.29 4.73999L25.03 9.38999C25.21 9.56999 25.35 9.76999 25.45 9.99999H20C19.45 9.99999 19 9.54999 19 8.99999V4.02999C19.46 4.08999 19.89 4.30999 20.2 4.64999C20.23 4.67999 20.25 4.70999 20.28 4.72999L20.29 4.73999ZM25.29 25.59C25 26.98 23.76 27.99 22.35 27.99H9.66002C8.25002 27.99 7.01002 26.98 6.72002 25.59C6.23002 23.23 6.01002 20.28 6.01002 16C6.01002 11.72 6.23002 8.76999 6.72002 6.40999C7.01002 5.01999 8.25002 4.00999 9.66002 4.00999H16H17V8.99999C17 10.66 18.35 12 20 12H25.74C25.87 13.43 25.99 14.99 25.99 16C25.99 20.28 25.77 23.24 25.28 25.59H25.29ZM21.54 19.05C21.92 19.42 21.92 20.02 21.55 20.4C21.18 20.78 20.57 20.78 20.2 20.41L17 17.27V24.8C17 25.35 16.55 25.8 16 25.8C15.45 25.8 15 25.35 15 24.8V17.24L11.79 20.43C11.6 20.61 11.36 20.71 11.12 20.71C10.88 20.71 10.63 20.62 10.44 20.43C10.07 20.06 10.07 19.45 10.44 19.08L14.69 14.86C15.45 14.16 16.49 14.15 17.23 14.83L21.54 19.05Z" fill="#024588"/>
</svg>
