<svg width="32" height="32" viewBox="0 0 32 32" fill="none" xmlns="http://www.w3.org/2000/svg">
<path d="M29.44 10.12C29.01 7.73 26.94 6 24.51 6H7.34C4.92 6 2.84 7.74 2.41 10.12C2.07 12 2 13.95 2 16C2 18.05 2.07 20 2.41 21.88C2.84 24.27 5.07 26 7.49 26H24.51C26.93 26 29.01 24.26 29.44 21.88C29.78 20 30 18.05 30 16C30 13.95 29.78 12 29.44 10.12ZM27.47 21.52C27.21 22.96 25.97 24 24.51 24H7.49C5.99 24 4.63 22.91 4.38 21.52C4.05 19.69 4.01 17.78 4.01 16C4.01 14.22 4.06 12.31 4.38 10.48C4.64 9.04 5.88 8 7.34 8H24.52C25.98 8 27.22 9.04 27.48 10.48C27.84 12.46 28.01 14.27 28.01 16C28.01 17.73 27.84 19.54 27.48 21.52H27.47ZM17.88 11.88C16.54 11.11 15.46 10.6 14.49 10.28C13.23 9.87 12.04 10.3 11.4 11.42C11.4 11.42 11.4 11.44 11.4 11.45C11.4 11.45 11.39 11.46 11.38 11.47C11.14 11.95 11.01 12.48 11.01 13.01V15.99V18.97C11.01 19.5 11.14 20.04 11.38 20.51C11.38 20.52 11.39 20.53 11.4 20.54V20.56C11.43 20.62 11.48 20.66 11.51 20.71C11.51 20.72 11.53 20.73 11.54 20.74C12.03 21.45 12.75 21.85 13.57 21.85C13.87 21.85 14.18 21.8 14.49 21.7C15.47 21.38 16.54 20.87 17.88 20.1C19.34 19.26 20.38 18.61 21.07 17.99C21.67 17.45 21.99 16.76 21.99 15.98C21.99 15.2 21.67 14.51 21.07 13.97C20.38 13.35 19.33 12.7 17.88 11.86V11.88ZM19.74 16.52C19.17 17.03 18.23 17.61 16.88 18.39C15.68 19.08 14.7 19.55 13.87 19.82C13.45 19.96 13.27 19.8 13.15 19.6C13.06 19.41 13.01 19.19 13.01 18.98V16V13.02C13.01 12.81 13.06 12.59 13.15 12.4C13.27 12.2 13.45 12.04 13.87 12.18C14.7 12.45 15.68 12.92 16.88 13.61C18.22 14.39 19.17 14.97 19.74 15.48C19.91 15.64 19.99 15.8 19.99 16C19.99 16.2 19.91 16.36 19.74 16.52Z" fill="#024588"/>
</svg>
