<svg width="32" height="32" viewBox="0 0 32 32" fill="none" xmlns="http://www.w3.org/2000/svg">
<path d="M16 2C9.93 2 5 6.93 5 13C5 15.46 5.43 17.38 6.45 19.42C7.65 21.84 10.45 26.57 13.31 28.98C14.07 29.62 15.02 29.98 15.98 30H16.02C16.98 29.98 17.93 29.62 18.69 28.98C21.55 26.57 24.35 21.84 25.55 19.42C26.57 17.38 27 15.46 27 13C27 6.93 22.07 2 16 2ZM23.76 18.53C22.7 20.65 20.01 25.25 17.4 27.45C17 27.79 16.5 27.98 16 28C15.5 27.99 15.01 27.79 14.6 27.45C11.99 25.25 9.3 20.65 8.24 18.53C7.37 16.78 7 15.13 7 13C7 8.04 11.04 4 16 4C20.96 4 25 8.04 25 13C25 15.13 24.63 16.79 23.76 18.53ZM16 7.99C13.24 7.99 10.99 10.24 10.99 13C10.99 15.76 13.24 18.01 16 18.01C18.76 18.01 21.01 15.76 21.01 13C21.01 10.24 18.76 7.99 16 7.99ZM16 16.01C14.34 16.01 12.99 14.66 12.99 13C12.99 11.34 14.34 9.99 16 9.99C17.66 9.99 19.01 11.34 19.01 13C19.01 14.66 17.66 16.01 16 16.01Z" fill="#024588"/>
</svg>
