<svg width="32" height="32" viewBox="0 0 32 32" fill="none" xmlns="http://www.w3.org/2000/svg">
<path d="M24.61 10C25.58 10 26.41 10.7 26.58 11.65C26.86 13.21 27 14.63 27 16C27 17.37 26.86 18.78 26.58 20.35C26.41 21.31 25.58 22 24.61 22H7.27C6.39 22 5.45 21.2 5.29 20.32C5.04 18.9 5 17.41 5 16C5 14.59 5.04 13.1 5.29 11.68C5.46 10.7 6.3 10 7.27 10H24.61ZM24.61 8H7.27C5.32 8 3.66 9.41 3.32 11.33C3.05 12.82 3 14.37 3 16C3 17.63 3.05 19.17 3.32 20.67C3.65 22.5 5.41 24 7.27 24H24.61C26.55 24 28.21 22.61 28.55 20.7C28.82 19.2 29 17.64 29 16C29 14.36 28.82 12.8 28.55 11.3C28.21 9.39 26.55 8 24.61 8ZM28 4C28 3.45 27.55 3 27 3H5C4.45 3 4 3.45 4 4C4 4.55 4.45 5 5 5H27C27.55 5 28 4.55 28 4ZM28 28C28 27.45 27.55 27 27 27H5C4.45 27 4 27.45 4 28C4 28.55 4.45 29 5 29H27C27.55 29 28 28.55 28 28Z" fill="#024588"/>
</svg>
