<svg width="32" height="32" viewBox="0 0 32 32" fill="none" xmlns="http://www.w3.org/2000/svg">
<path d="M26.9998 10.0098H10.9998C10.4498 10.0098 9.99977 9.55977 9.99977 9.00977C9.99977 8.45977 10.4498 8.00977 10.9998 8.00977H26.9998C27.5498 8.00977 27.9998 8.45977 27.9998 9.00977C27.9998 9.55977 27.5498 10.0098 26.9998 10.0098ZM27.9998 15.9998C27.9998 15.4498 27.5498 14.9998 26.9998 14.9998H10.9998C10.4498 14.9998 9.99977 15.4498 9.99977 15.9998C9.99977 16.5498 10.4498 16.9998 10.9998 16.9998H26.9998C27.5498 16.9998 27.9998 16.5498 27.9998 15.9998ZM27.9998 22.9998C27.9998 22.4498 27.5498 21.9998 26.9998 21.9998H10.9998C10.4498 21.9998 9.99977 22.4498 9.99977 22.9998C9.99977 23.5498 10.4498 23.9998 10.9998 23.9998H26.9998C27.5498 23.9998 27.9998 23.5498 27.9998 22.9998ZM5.49977 17.4898C6.31977 17.4898 6.98977 16.8198 6.98977 15.9998C6.98977 15.1798 6.31977 14.5098 5.49977 14.5098C4.67977 14.5098 4.00977 15.1798 4.00977 15.9998C4.00977 16.8198 4.67977 17.4898 5.49977 17.4898ZM5.49977 10.4898C6.31977 10.4898 6.98977 9.81977 6.98977 8.99977C6.98977 8.17977 6.31977 7.50977 5.49977 7.50977C4.67977 7.50977 4.00977 8.17977 4.00977 8.99977C4.00977 9.81977 4.67977 10.4898 5.49977 10.4898ZM5.49977 24.4898C6.31977 24.4898 6.98977 23.8198 6.98977 22.9998C6.98977 22.1798 6.31977 21.5098 5.49977 21.5098C4.67977 21.5098 4.00977 22.1798 4.00977 22.9998C4.00977 23.8198 4.67977 24.4898 5.49977 24.4898Z" fill="#024588"/>
</svg>
