<svg width="32" height="32" viewBox="0 0 32 32" fill="none" xmlns="http://www.w3.org/2000/svg">
<path d="M16 30C8.28 30 2 23.72 2 16C2 8.28 8.28 2 16 2C23.72 2 30 8.28 30 16C30 23.72 23.72 30 16 30ZM16 4C9.38 4 4 9.38 4 16C4 22.62 9.38 28 16 28C22.62 28 28 22.62 28 16C28 9.38 22.62 4 16 4ZM21 16C21 17.1 21.9 18 23 18C24.1 18 25 17.1 25 16C25 14.9 24.1 14 23 14C21.9 14 21 14.9 21 16ZM14 16C14 17.1 14.9 18 16 18C17.1 18 18 17.1 18 16C18 14.9 17.1 14 16 14C14.9 14 14 14.9 14 16ZM7 16C7 17.1 7.9 18 9 18C10.1 18 11 17.1 11 16C11 14.9 10.1 14 9 14C7.9 14 7 14.9 7 16Z" fill="#024588"/>
</svg>
