<svg width="32" height="32" viewBox="0 0 32 32" fill="none" xmlns="http://www.w3.org/2000/svg">
<path d="M12.1202 4H6.87023C5.64023 4 4.59023 4.82 4.31023 6C4.10023 6.9 3.99023 8.07 3.99023 9.5C3.99023 10.93 4.10023 12.1 4.31023 13C4.59023 14.18 5.64023 15 6.87023 15H9.49023H12.1102C13.3402 15 14.3902 14.18 14.6702 13C14.8802 12.1 14.9902 10.92 14.9902 9.5C14.9902 8.08 14.8802 6.9 14.6702 6C14.3902 4.82 13.3402 4 12.1102 4H12.1202ZM12.7402 12.54C12.6802 12.81 12.4202 13.01 12.1202 13.01H9.50023H6.88023C6.59023 13.01 6.33023 12.82 6.27023 12.55C6.09023 11.81 6.00023 10.78 6.00023 9.51C6.00023 8.24 6.09023 7.22 6.27023 6.47C6.33023 6.2 6.59023 6.01 6.88023 6.01H12.1302C12.4202 6.01 12.6802 6.21 12.7502 6.47C12.9302 7.22 13.0202 8.24 13.0202 9.51C13.0202 10.78 12.9302 11.8 12.7502 12.55L12.7402 12.54ZM12.1202 17H9.50023H6.88023C5.65023 17 4.60023 17.82 4.32023 19C4.11023 19.9 4.00023 21.07 4.00023 22.5C4.00023 23.93 4.11023 25.1 4.32023 26C4.60023 27.18 5.65023 28 6.88023 28H9.50023H12.1202C13.3502 28 14.4002 27.18 14.6802 26C14.8902 25.1 15.0002 23.92 15.0002 22.5C15.0002 21.08 14.8902 19.9 14.6802 19C14.4002 17.82 13.3502 17 12.1202 17ZM12.7402 25.54C12.6802 25.81 12.4202 26.01 12.1202 26.01H9.50023H6.88023C6.59023 26.01 6.33023 25.81 6.27023 25.55C6.09023 24.81 6.00023 23.78 6.00023 22.51C6.00023 21.24 6.09023 20.22 6.27023 19.47C6.33023 19.2 6.59023 19.01 6.88023 19.01H9.50023H12.1202C12.4102 19.01 12.6702 19.21 12.7402 19.47C12.9202 20.22 13.0102 21.24 13.0102 22.51C13.0102 23.78 12.9202 24.8 12.7402 25.55V25.54ZM19.8802 15.01H22.5002H25.1202C26.3502 15.01 27.4002 14.19 27.6802 13.01C27.8902 12.11 28.0002 10.93 28.0002 9.51C28.0002 8.09 27.8902 6.91 27.6802 6.01C27.4002 4.83 26.3502 4.01 25.1202 4.01H19.8702C18.6402 4.01 17.5902 4.83 17.3102 6.01C17.1002 6.91 16.9902 8.08 16.9902 9.51C16.9902 10.94 17.1002 12.11 17.3102 13.01C17.5902 14.19 18.6402 15.01 19.8702 15.01H19.8802ZM19.2702 6.47C19.3302 6.2 19.5902 6.01 19.8802 6.01H25.1302C25.4202 6.01 25.6802 6.21 25.7502 6.47C25.9302 7.22 26.0202 8.24 26.0202 9.51C26.0202 10.78 25.9302 11.8 25.7502 12.55C25.6902 12.82 25.4302 13.02 25.1302 13.02H22.5102H19.8902C19.6002 13.02 19.3402 12.83 19.2802 12.56C19.1002 11.82 19.0102 10.79 19.0102 9.52C19.0102 8.25 19.1002 7.23 19.2802 6.48L19.2702 6.47ZM25.1302 17.01H22.5102H19.8902C18.6602 17.01 17.6102 17.83 17.3302 19.01C17.1202 19.91 17.0102 21.08 17.0102 22.51C17.0102 23.94 17.1202 25.11 17.3302 26.01C17.6102 27.19 18.6602 28.01 19.8902 28.01H22.5102H25.1302C26.3602 28.01 27.4102 27.19 27.6902 26.01C27.9002 25.11 28.0102 23.93 28.0102 22.51C28.0102 21.09 27.9002 19.91 27.6902 19.01C27.4102 17.83 26.3602 17.01 25.1302 17.01ZM25.7502 25.55C25.6902 25.82 25.4302 26.02 25.1302 26.02H22.5102H19.8902C19.6002 26.02 19.3402 25.82 19.2802 25.56C19.1002 24.82 19.0102 23.79 19.0102 22.52C19.0102 21.25 19.1002 20.23 19.2802 19.48C19.3402 19.21 19.6002 19.02 19.8902 19.02H22.5102H25.1302C25.4202 19.02 25.6802 19.22 25.7502 19.48C25.9302 20.23 26.0202 21.25 26.0202 22.52C26.0202 23.79 25.9302 24.81 25.7502 25.56V25.55Z" fill="#024588"/>
</svg>
