<svg width="32" height="32" viewBox="0 0 32 32" fill="none" xmlns="http://www.w3.org/2000/svg">
<path d="M16.0002 21.5C12.9702 21.5 10.5002 19.03 10.5002 16C10.5002 12.97 12.9702 10.5 16.0002 10.5C19.0302 10.5 21.5002 12.97 21.5002 16C21.5002 19.03 19.0302 21.5 16.0002 21.5ZM16.0002 12.5C14.0702 12.5 12.5002 14.07 12.5002 16C12.5002 17.93 14.0702 19.5 16.0002 19.5C17.9302 19.5 19.5002 17.93 19.5002 16C19.5002 14.07 17.9302 12.5 16.0002 12.5ZM29.0802 13.34C26.1102 8.47 21.7102 6 16.0102 6C10.3102 6 5.90018 8.47 2.93018 13.34C1.93018 14.98 1.93018 17.02 2.93018 18.65C5.90018 23.52 10.3002 25.99 16.0102 25.99C21.7202 25.99 26.1102 23.52 29.0802 18.65C30.0802 17.01 30.0802 14.97 29.0802 13.34ZM27.3702 17.61C24.7502 21.91 21.0302 23.99 16.0002 23.99C10.9702 23.99 7.25018 21.9 4.63018 17.61C4.02018 16.61 4.02018 15.37 4.63018 14.38C7.25018 10.08 10.9702 8 16.0002 8C21.0302 8 24.7502 10.09 27.3702 14.38C27.9802 15.38 27.9802 16.61 27.3702 17.61Z" fill="#024588"/>
</svg>
