<svg width="32" height="32" viewBox="0 0 32 32" fill="none" xmlns="http://www.w3.org/2000/svg">
<path d="M28.9305 10.33C28.3105 9.89001 27.5405 9.79001 26.8305 10.05C26.8005 10.06 26.7705 10.07 26.7405 10.09C26.3705 10.27 23.5605 11.63 22.0005 12.71V9.85001C22.0005 7.73001 20.2105 6.01001 18.0005 6.01001H12.4905H6.95047C4.88047 6.01001 3.11047 7.34001 2.63047 9.23001C2.20047 10.95 1.98047 13.23 1.98047 16.01C1.98047 18.79 2.20047 21.06 2.63047 22.79C3.11047 24.69 4.88047 26.01 6.95047 26.01H12.4805H17.9905C20.2005 26.01 21.9905 24.29 21.9905 22.17V19.31C23.5505 20.4 26.3505 21.8 26.7205 21.98C26.7505 22 26.7905 22.01 26.8205 22.02C27.0805 22.11 27.3405 22.16 27.6105 22.16C28.0705 22.16 28.5205 22.02 28.9205 21.74C29.5605 21.29 29.9505 20.54 29.9505 19.74V12.33C29.9505 11.53 29.5705 10.78 28.9205 10.33H28.9305ZM18.0005 24H12.4905H6.96047C5.83047 24 4.83047 23.28 4.58047 22.29C4.19047 20.73 3.99047 18.61 3.99047 16C3.99047 13.39 4.19047 11.27 4.58047 9.71001C4.83047 8.72001 5.83047 8.00001 6.96047 8.00001H12.5005H18.0105C19.1105 8.00001 20.0105 8.83001 20.0105 9.84001V15.85C20.0105 15.91 19.9905 15.95 19.9905 16.01C19.9905 16.14 19.9905 16.27 20.0105 16.39V22.16C20.0105 23.18 19.1105 24 18.0105 24H18.0005ZM27.9605 19.73C27.9605 19.88 27.8905 20.02 27.7805 20.09C27.6905 20.15 27.6005 20.15 27.5505 20.14C25.9805 19.36 23.3305 17.93 22.6605 17.28C22.1905 16.82 22.0405 16.6 22.0005 16.3V15.76C22.0405 15.43 22.1905 15.18 22.6605 14.72C23.3305 14.07 25.9905 12.67 27.5505 11.92C27.6005 11.91 27.6905 11.9 27.7805 11.97C27.8905 12.05 27.9605 12.18 27.9605 12.33V19.74V19.73Z" fill="#024588"/>
</svg>
